<svg xmlns="http://www.w3.org/2000/svg" width="131" height="43" fill="none" viewBox="0 0 131 43"><g id="Livello_1-2"><path id="Vector" fill="#102C53" d="M46.55 9.71c0-.13.11-.25.25-.25h3.12a3 3 0 0 1 2.98 2.94 3 3 0 0 1-2.96 2.99h-1.66v3.12c0 .13-.12.25-.25.25h-1.22a.25.25 0 0 1-.25-.25zm3.27 4.05c.74 0 1.37-.6 1.37-1.38 0-.73-.62-1.29-1.37-1.29h-1.54v2.67z"/><path id="Vector_2" fill="#102C53" d="M58.39 9.32a4.77 4.77 0 0 1 4.78 4.8 4.75 4.75 0 0 1-4.78 4.77 4.74 4.74 0 0 1-4.77-4.77c0-2.66 2.11-4.8 4.77-4.8m0 7.84a3.07 3.07 0 0 0 3.06-3.04 3.1 3.1 0 0 0-3.06-3.07 3.05 3.05 0 0 0 0 6.11"/><path id="Vector_3" fill="#102C53" d="M64.79 9.71c0-.13.11-.25.25-.25h1.22c.13 0 .25.12.25.25v7.46h3.39c.15 0 .25.12.25.25v1.09c0 .13-.11.25-.25.25h-4.86a.25.25 0 0 1-.25-.25z"/><path id="Vector_4" fill="#102C53" d="M71.37 9.71c0-.13.12-.25.25-.25h1.24c.13 0 .25.12.25.25v8.8c0 .13-.12.25-.25.25h-1.24a.26.26 0 0 1-.25-.25z"/><path id="Vector_5" fill="#102C53" d="M76.64 11.05h-2.03a.25.25 0 0 1-.25-.25V9.71c0-.13.11-.25.25-.25h5.81c.15 0 .25.12.25.25v1.09c0 .13-.11.25-.25.25h-2.03v7.46c0 .13-.12.25-.25.25H76.9a.26.26 0 0 1-.25-.25v-7.46z"/><path id="Vector_6" fill="#102C53" d="M81.92 9.71c0-.13.11-.25.25-.25h5.41c.15 0 .25.12.25.25v1.09c0 .13-.11.25-.25.25h-3.93v2.18h3.28c.13 0 .25.12.25.25v1.1c0 .15-.12.25-.25.25h-3.28v2.33h3.93c.15 0 .25.12.25.25v1.09c0 .13-.11.25-.25.25h-5.41a.25.25 0 0 1-.25-.25V9.7z"/><path id="Vector_7" fill="#102C53" d="M93.68 9.32c1.34 0 2.31.43 3.22 1.24.12.11.12.27.01.37l-.81.84c-.09.11-.23.11-.33 0a3.2 3.2 0 0 0-2.05-.78 3 3 0 0 0-2.96 3.1 3 3 0 0 0 5.01 2.31c.11-.09.25-.08.33 0l.82.85c.11.09.08.27-.01.36a4.76 4.76 0 0 1-8.03-3.48c0-2.66 2.14-4.8 4.8-4.8z"/><path id="Vector_8" fill="#102C53" d="M98.52 9.56c0-.13.12-.24.25-.24h.33l5.53 5.87h.01V9.7c0-.13.11-.25.25-.25h1.22c.13 0 .25.12.25.25v8.94c0 .13-.12.24-.25.24h-.32l-5.56-6.1h-.01v5.71c0 .13-.11.25-.25.25h-1.21a.26.26 0 0 1-.25-.25z"/><path id="Vector_9" fill="#102C53" d="M108.66 9.71c0-.13.12-.25.25-.25h1.24c.13 0 .25.12.25.25v8.8c0 .13-.12.25-.25.25h-1.24a.26.26 0 0 1-.25-.25z"/><path id="Vector_10" fill="#102C53" d="M116.81 9.32c1.34 0 2.31.43 3.22 1.24.12.11.12.27.01.37l-.81.84c-.09.11-.23.11-.33 0a3.2 3.2 0 0 0-2.05-.78 3 3 0 0 0-2.96 3.1 3 3 0 0 0 5.01 2.31c.11-.09.25-.08.33 0l.82.85c.11.09.08.27-.01.36a4.76 4.76 0 0 1-8.03-3.48c0-2.66 2.14-4.8 4.8-4.8z"/><path id="Vector_11" fill="#102C53" d="M125.71 9.32a4.78 4.78 0 1 1 0 9.57 4.74 4.74 0 0 1-4.77-4.77c0-2.66 2.11-4.8 4.77-4.8m0 7.84a3.07 3.07 0 0 0 3.06-3.04 3.1 3.1 0 0 0-3.06-3.07 3.05 3.05 0 0 0 0 6.11"/><path id="Vector_12" fill="#102C53" d="M47.88 23.48a.3.3 0 0 1 .24-.19h.21c.09 0 .2.07.23.15l2.63 7.32h.07l2.59-7.32a.3.3 0 0 1 .23-.15h.21q.18.01.24.19l1.71 8.93q.06.3-.24.32h-.53c-.11 0-.21-.09-.24-.19l-1.18-6.84H54l-2.45 7.02c-.03.08-.15.15-.23.15h-.24c-.08 0-.2-.07-.23-.15l-2.47-7.02h-.05l-1.16 6.84c-.01.09-.13.19-.24.19h-.53q-.3-.02-.24-.32z"/><path id="Vector_13" fill="#102C53" d="M58.68 23.68c0-.13.12-.25.25-.25h.53c.13 0 .25.12.25.25v8.8c0 .13-.12.25-.25.25h-.53a.26.26 0 0 1-.25-.25z"/><path id="Vector_14" fill="#102C53" d="M62.83 23.68c0-.13.11-.25.25-.25h.52c.13 0 .25.12.25.25v8.16h3.83c.15 0 .25.12.25.25v.39c0 .13-.11.25-.25.25h-4.6a.25.25 0 0 1-.25-.25z"/><path id="Vector_15" fill="#102C53" d="m68.89 32.38 4.04-8.94q.05-.13.23-.15h.13q.17.02.23.15l4.01 8.94c.08.17-.03.35-.23.35h-.53a.3.3 0 0 1-.23-.15l-.98-2.19h-4.72l-.97 2.19a.3.3 0 0 1-.23.15h-.53c-.2 0-.31-.17-.23-.35zm6.31-2.82-1.94-4.36h-.11l-1.94 4.36z"/><path id="Vector_16" fill="#102C53" d="M79.37 23.53c0-.13.12-.24.25-.24h.33l5.99 7.47h.03v-7.08c0-.13.11-.25.25-.25h.46c.13 0 .25.12.25.25v8.94c0 .13-.12.24-.25.24h-.24l-6.1-7.62h-.01v7.23c0 .13-.11.25-.25.25h-.46a.26.26 0 0 1-.25-.25z"/><path id="Vector_17" fill="#102C53" d="M94.15 23.29a4.77 4.77 0 0 1 4.78 4.8 4.75 4.75 0 0 1-4.78 4.77 4.74 4.74 0 0 1-4.77-4.77c0-2.66 2.11-4.8 4.77-4.8m0 8.64A3.86 3.86 0 0 0 98 28.09a3.9 3.9 0 0 0-3.85-3.87 3.85 3.85 0 0 0 0 7.71"/><path id="Vector_18" fill="#102C53" d="m105.34 25.34-.96.74q-.16.13-.31-.01l-.25-.28c-.09-.11-.04-.23.03-.29l1.86-1.81h.36c.13 0 .24.12.24.25v8.53c0 .13-.11.25-.24.25h-.48a.25.25 0 0 1-.25-.25v-7.14z"/><path id="Vector_19" fill="#102C53" d="M110.53 28.07v-.04c-.6-.28-1.37-1.02-1.37-2.05 0-1.46 1.16-2.43 2.74-2.43s2.76.97 2.76 2.43c0 1.02-.77 1.77-1.37 2.05v.04c.62.27 1.61 1.08 1.61 2.22 0 1.45-1.13 2.56-3.02 2.56s-2.96-1.12-2.96-2.56c0-1.14.98-1.95 1.61-2.22m1.36 3.99c1.14 0 2.02-.62 2.02-1.67 0-.82-.73-1.66-1.99-1.79-1.28.13-1.99.97-1.99 1.79 0 1.02.92 1.67 1.97 1.67zm1.79-6.03c0-1-.77-1.67-1.82-1.67-.96 0-1.71.68-1.71 1.67 0 .82.53 1.46 1.77 1.58 1.22-.12 1.77-.76 1.77-1.58z"/><path id="Vector_20" fill="#102C53" d="M121.19 23.38q.2-.06.29.13l.15.32q.12.25-.24.39c-.6.2-2.95 1.52-3.42 3.31 0 0 .88-.6 2.02-.6 1.5 0 2.86 1.12 2.86 2.88a3 3 0 0 1-2.94 3.04c-2.15 0-3.1-1.67-3.1-3.79 0-3.54 3.03-5.16 4.37-5.69zm.72 6.49c0-1.16-.89-2.07-2.01-2.07-1.24 0-2.1.86-2.1.86-.23 1.33.29 3.32 2.11 3.32 1.12 0 1.99-.97 1.99-2.11z"/><path id="Vector_21" fill="#102C53" d="m124.36 31.36.36-.31q.21-.16.36.07c.12.15.84.92 1.98.92 1.01 0 1.91-.61 1.91-1.66 0-.9-.7-1.74-2.35-1.74h-.75q-.24.01-.25-.29v-.32q-.02-.3.28-.29h.73c1.42 0 2.11-.73 2.11-1.61 0-1.05-.8-1.69-1.74-1.69a2.2 2.2 0 0 0-1.74.86c-.08.09-.21.15-.34.03l-.32-.25c-.11-.09-.09-.25 0-.35 0 0 .96-1.17 2.41-1.17 1.61 0 2.74.94 2.74 2.43 0 1.02-.77 1.82-1.37 2.1v.04c.62.27 1.59 1.01 1.59 2.15 0 1.45-1.12 2.58-2.95 2.58a3.3 3.3 0 0 1-2.67-1.18c-.08-.09-.09-.24.01-.32"/><path id="Vector_22" fill="#102C53" d="M19.12 13.8v.18z"/><path id="Vector_23" fill="#102C53" d="M18.86 10.31a1 1 0 0 1-.28-.06v.03s-.07.06-.12.2-.33.8-.39 1.1c-.07.31-.28.07-.28.07s-.09.11-.15.14l-.24.05s-.09.12-.14.14c-.04 0-.14.1-.14.16s0 .13-.14.15c-.13.02-.49-.18-.49-.18l-.54-.29h-.01s.07.53-.22.87l.03.02s0 .36-.03.48c0 .03-.13.1-.29.18l.14.03s.56.4.62.6v.05l.29.08.18-.03.52.07.47.08c.04.11-.2.2-.2.2l-.45.07.14.22c.14.23-.17.41-.17.41.09.43-.18.56-.18.56-.42.28-.83.04-1.12-.13v.03l-.9-.04c-.88-.06-1.17-.88-1.17-.88-.11-.17-.02-.49-.02-.49l-.03-.06-.72.37h-.05l.06.16c.12.29.53 1.09.52 1.69q.01.92.24 1.64c.15.47.43 1.03.54 1.03s.34.07.42.17c.08.09.39.22.47.25.05.02.18.07.2.14 0 0 .59.15 1.06.36v-1.22l.28-.76.01-.04.28-.79.62-.61.59.49c-.07-.17-.17-.22-.54-.48-.37-.27.03-.6.13-.62.09-.02.06-.08.06-.08q0-.08.22-.28c.14-.13.08-.11.1-.51.02-.3.14-.42.19-.46l.02-.06v-.02c-.05-.41.14-.72.14-.72 0-.27.41-.52.41-.52.23-.47.67-.29.67-.29l.37-.16s.21.02.29-.01a1 1 0 0 1 .37-.04s.17 0 .28.17c0 0 .24.02.28.15s.33.07.29.37c0 0 .17.24.18.38 0 .12.21.08.27.32l.01.08-.01-.08.1-.16a1 1 0 0 0-.2-.21.4.4 0 0 0-.16-.22c0-.2-.14-.28-.23-.32l-.07-.05c-.04-.14-.25-.26-.33-.3-.14-.19-.44-.24-.47-.24-.11-.03-.42.08-.61.16-.07 0-.22-.03-.4.04a.7.7 0 0 0-.75.4c-.06.05-.26.2-.36.4-.01.05-.35 1.05-.4 1.41q-.04.23-.03.29l-.03.09-.14.2c-.18.22-.43.53-.39.78q.01.07.05.13c-.34.25-1.42 1.22-1.2 3.29-.39-.16-.8-.26-.91-.3-.05-.07-.16-.11-.22-.14a1 1 0 0 1-.43-.24 1 1 0 0 0-.47-.2 3 3 0 0 1-.47-.97 5 5 0 0 1-.24-1.62c0-.53-.3-1.2-.47-1.57l-.07-.16-.02-.05.57-.29c-.02.14-.03.32.05.45.01.03.32.87 1.24.94l.89.03h.03c.3.16.72.39 1.15.09.01 0 .31-.16.24-.6a.5.5 0 0 0 .19-.26.3.3 0 0 0-.04-.24l-.07-.11.32-.05s.2-.07.26-.18q.04-.07 0-.14 0-.04-.07-.06l-.49-.08-.51-.07h-.03l-.16.02-.21-.05c-.05-.2-.46-.51-.61-.62.12-.07.14-.1.15-.14.04-.14.03-.47.03-.51v-.03c.16-.24.19-.53.2-.7l.41.22c.09.05.4.21.55.18.2-.03.22-.18.22-.24q.02-.05.07-.08.07 0 .16-.14l.24-.05.11-.09q.08.05.2.05.13-.04.16-.23c.05-.23.23-.68.32-.92l.07-.17.07-.14q.15.05.26.03c.28-.04.34-.17.36-.29h-.09s-.02.17-.28.21z"/><path id="Vector_24" fill="#102C53" d="M23.57 16.5v-.16l.05-.16-.03.03c-.07.04-.05.16-.03.28z"/><path id="Vector_26" fill="#102C53" d="m16.11 27.49.2.63.24.72c.04.11.28.4.19.87l-.02.09h.07s.19.26.39.6.08 1.03.05 1.27-.17.27-.51.66-1.11.24-1.47.14-1.2-.28-1.67-.33c-.48-.05-1.43-.62-1.67-.73a14 14 0 0 1-1.47-1.16 2 2 0 0 0-.56-.21c-.13-.02-.93.54-1 .59a1 1 0 0 0-.2.22q-.03.12.04.23c.07.11.13.09.2.11l.28.09c.08.02-.14.28-.18.3q-.04.04-.03.16c0 .05-.12.09-.17.09h-.2l-.24-.03c-.02 0-.14-.12-.14-.16s-.42-.75-.45-.93c-.03-.17.28-.93.44-1.26s.16-.7.16-.89c.01-.19.18-.33.18-.33l.03-.03c-.68-.64-.44-1.68-.44-1.68l.02-.02-.07-.07c-.21-.26-.27-.84-.27-.84h-.11c-.18.15-.55.36-.55.36-.99.02-.68-1.05-.64-1.44s.68-.75.9-.8h-.03c-.29.14-.71 0-.89-.2-.17-.2-.29-.26-.64-.28a.3.3 0 0 1-.2-.05l-.02.05s-.23-.15-.39-.1-.43-.05-.46-.17c0 0-.21-.02-.16-.07l.02-.03-.4-.28c-.21.05-.34-.24-.34-.24-.39-.19.26-.78.26-.78l.52-.73s.39-.53.51-1.07c.16-.2.22-1.62.22-1.62.2-1.61.83-2.04.83-2.04-.53-.8-.19-1.13-.14-1.17-.15-.14-.26-.28-.32-.33-.14-.12-.24-.68-.09-.8.15-.14.58-.66.58-.66.68-1.21 1.37-1.37 1.37-1.37h.05l.05-.28c.11-.45.49-.6.76-.75s.56-.74.86-.92 1.08-.34 1.68-.47a7 7 0 0 1 1.77 0h.09c.18 0 .56.04.94.23l.02-.03c-.09-.25.4-.54.4-.55-.02-.3.39-.28.39-.28.01-.26.53-.18.53-.18l.24-.31c.27-.14 1.23-.03 1.23-.03.68-.11.72.16.72.16.48.04.65.24.65.24.14-.11.34.08.34.08.43.11.49.47.49.47.51.16.28.48.28.48.3.28.01.41 0 .48h.09c.18-.72-.09-.95-.3-1.03-.07-.15-.37-.64-.87-.57-.15-.1-.77-.49-1.4-.41-.14-.02-1.05-.16-1.41.14a.4.4 0 0 0-.15.23c-.28.05-.89.2-.93.51l-.11.03c-.13.07-.3.24-.3.45a2 2 0 0 0-.85-.18h-.09c-.08 0-1.2-.12-1.8.01l-.26.05c-.58.13-1.18.26-1.45.43-.17.1-.32.3-.47.5-.13.17-.26.35-.38.42l-.11.06c-.26.14-.58.32-.69.75l-.05.22c-.1.03-.77.25-1.4 1.4 0 0-.43.51-.57.64q-.1.1-.1.32c0 .22.07.51.2.62l.08.09.17.18c-.11.15-.25.5.14 1.14-.2.14-.64.57-.79 1.87 0 .01-.08 1.58-.28 2.18-.38.81-1.21 1.66-1.22 1.68 0 0-.07.09-.1.2s-.02.28.17.45l.62.43.05.01.01.05q.01.09.19.16c.11.05.62.22.84.24q.05.05.16.05l.17.01c.25 0 .39.01.51.15q.14.16.26.23h.03l.26.03c-.26.17-.53.42-.57.7l-.02.17c-.05.34-.14.85.13 1.15q.2.23.6.23l.07-.01c.01 0 .35-.2.54-.36.03.17.1.59.28.81l.03.03c-.03.14-.19 1.05.41 1.69a.6.6 0 0 0-.17.36v.07c-.01.2-.03.5-.16.78 0 .01-.49 1.07-.44 1.32.01.13.18.43.35.76l.09.16c.01.08.16.22.2.24.03.01.22.04.28.03h.21c.11-.03.23-.07.24-.18v-.09c.07-.06.24-.25.23-.36q0-.08-.08-.11l-.34-.11q-.07-.01-.08-.04l-.02-.04q-.04-.09-.02-.12l.17-.18h.02c.76-.55.91-.57.91-.58q.4.08.52.19c.1.1 1.23 1.06 1.49 1.17l.27.14c.41.22 1.04.56 1.43.6.47.05 1.31.23 1.66.32s1.18.27 1.56-.17l.28-.29c.14-.14.24-.22.25-.41l.01-.12c.03-.31.1-.89-.09-1.21a5 5 0 0 0-.43-.61v-.02c.08-.41-.08-.69-.16-.84l-.04-.07-.24-.72-.2-.64-.03.02-.06.02z"/><path id="Vector_27" fill="#102C53" d="m21.06 13.43-.11-.07z"/><path id="Vector_28" fill="#102C53" d="M19.51 14.84c0 .15.04.44.16.71l.08.23-.08-.23a2 2 0 0 1-.16-.71"/><path id="Vector_29" fill="#102C53" d="m20.46 13.02.26.22.08.04-.08-.04zc-.45-.11-.72 0-.87.06.15-.07.42-.17.87-.06"/><path id="Vector_30" fill="#102C53" d="m21.21 13.69-.01-.03z"/><path id="Vector_31" fill="#102C53" d="M23.09 11.63q.09 0 .14-.08-.04.07-.14.08"/><path id="Vector_32" fill="#102C53" d="m21.56 16.39.05.04s.11 0 .18.03l.03.01-.25-.09z"/><path id="Vector_33" fill="#102C53" d="m21.6 15.26-.02.05z"/><path id="Vector_34" fill="#102C53" d="m23.91 8.9.25-.09z"/><path id="Vector_35" fill="#102C53" d="M22.25 15.62q.02-.1-.01-.19.04.09.01.2c-.06.2.14.38-.11.57l-.07.06.07-.05c.26-.19.05-.38.12-.57z"/><path id="Vector_36" fill="#102C53" d="m23.6 9.4.24-.42z"/><path id="Vector_37" fill="#102C53" d="M21.49 14.31v.08l-.02-.09z"/><path id="Vector_38" fill="#102C53" d="m21.47 14.24.01.04z"/><path id="Vector_39" fill="#102C53" d="m25.5 8.87.15.19z"/><path id="Vector_40" fill="#102C53" d="M21.1 19.44s0 .09.03.15a.3.3 0 0 0-.08-.35c-.07-.21-.26-.28-.41-.3h-.02c.36.11.5.41.47.51z"/><path id="Vector_41" fill="#102C53" d="m21.59 20.26-.03-.15c-.03-.11-.18-.22-.29-.31l.31.44z"/><path id="Vector_42" fill="#102C53" d="m20.94 10.91.07.05zc-.11-.09-.19-.19-.21-.2l-.03-.01.03.01c.02.01.1.11.21.2"/><path id="Vector_43" fill="#102C53" d="m20.57 11.03-.05-.01-.27-.16.27.16z"/><path id="Vector_44" fill="#102C53" d="M18.92 22.64q.25.12.4.14h.07c.1-.07.19-.2.26-.24q-.14.06-.3.18c-.07.04-.26-.01-.43-.06z"/><path id="Vector_45" fill="#102C53" d="M20.83 20.84h.09l-.11-.05z"/><path id="Vector_46" fill="#102C53" d="M27.03 32.02v-.75l-.02-.05q0-.02-.03-.02l-.03-.01-3.02-.62h-.04l-.43.1-.32-2.18.01-.01c.17-.22.35-.6.23-1.1-.18-.76-.15-.91-.08-1.12.01-.04.16-.23.3-.43.34-.47.93-1.25 1.36-2.05 0 .53-.01 1.47 0 1.57v.03q.05.68-.1.88c-.16.23-.37.68-.34.9.02.18.01.45 0 .51l-.22.66s-.03.26.1.43q.1.15.33.18c.45.05 1.03.06 1.27-.06.26-.13.47-.4.39-.61a1 1 0 0 0-.22-.26l-.14-.15c-.11-.14-.22-.38-.19-.49.01-.03.07-.25.07-.37-.02-.4.03-.53.05-.57l.82-1.24c.01-.02.36-.55.48-2.04q.59-.05.8-.05v.07l-.37.76c-.02.05-.6 1.16-.7 1.43l-.03.08c-.14.34-.52 1.22-.06 2.41l.2.73c.34 1.07.47 1.19.91 1.26h.03l-.1.32-.03.05q-.08.14-.15.38-.05.16-.03.34c.03.27.05.55.32.59.18.02.43-.02.51-.04.08.03.29.1.43.11h.07q.22.04.4-.05l.18-.09q.14-.06.23-.12c.01-.01.39-.29.38-.54 0-.18-.32-.65-.43-.81l-.01-.04c.21.03.81.09 2.73.17l.45.02h.32c.82.03 2.66-.17 2.74-.18q.08 0 .08-.09 0-.07-.07-.09c-.41-.1-.87-1.6-.6-2.71l.08-.32a20 20 0 0 0 .68-7.19 16 16 0 0 0-.81-3.96c.18-.26.36-.57.36-.87 0-.33-.17-.8-.55-1.13a1.4 1.4 0 0 0-1.2-.3l-.59.18c-.57-.41-1.08-.41-1.43-.41q-.2 0-.28-.02c-.01 0-.33-.14-.68-.07q-.83-.14-1.64-.02a2 2 0 0 0-.58-.6v-.13c0-.27-.28-.76-.31-.82a4.5 4.5 0 0 0-2.09-1.8c.05-.17.09-.55.07-.65l.04-.14.06-.2c.03-.13-.09-.37-.27-.76l-.1-.22c-.14-.29-.52-.35-.64-.36-.44-.43-1.19-.35-1.23-.35-.16.04-.67.17-.77.25-.07.05-.24.22-.39.39-.6-.34-1.2.01-1.32.09l-.53.07c-.24.03-.42.14-.9.7a1.1 1.1 0 0 0-.21 1.18c-.2.07-.39.21-.49.3-.15.14-.18.54-.18.7h-.07c-.37.03-.72.24-.72.24q-.3.13-.34.22v.09c.05.12.2.24.44.24.19 0 .24 0 .3-.08v-.02h.03l.63.62c.01 0 .45.28.85.01q.15-.1.29-.13c.12-.05.25-.09.3-.22.09-.02.32-.07.45-.14l.19-.16.01-.02q.24-.25.3-.24c.56 1.41.02 2.26.01 2.27-.03.04-.17.36-.27.62l.35-.56s.59-.88 0-2.35c-.09-.23-.44.2-.46.22a.4.4 0 0 1-.17.14c-.15.08-.47.14-.47.14-.03.22-.27.21-.57.36-.38.19-.75-.02-.75-.02s-.57-.54-.61-.6q-.07-.08-.15.01c-.05.06-.02.06-.24.07a.4.4 0 0 1-.36-.19c-.03-.06.28-.19.28-.19s.34-.2.69-.23l.16-.01v-.03s0-.55.16-.69c.11-.1.32-.26.53-.3l.24.02.21.09-.21-.09-.24-.02v-.09s-.3-.52.18-1.09.64-.65.84-.67l.56-.07s.66-.48 1.3-.07c.16-.18.35-.38.42-.43.1-.08.74-.23.74-.23s.76-.08 1.17.34c0 0 .46.02.6.31.14.3.39.78.36.92s-.11.29-.1.37a3 3 0 0 1-.1.68l-.02.07.02-.07.07.03s1.26.45 2.05 1.77c0 0 .29.51.3.77v.12l-.02.03c.47.33.7.63.7.63l-.2.06-.18.04h.01l.07-.01.36-.02c.38-.06 1-.08 1.32-.01v.11q.34-.15.76-.09l.16.06c.31.14.66-.16 1.82.47.09.05.61-.31.83-.31q.23.02.57.29h.01q.1.06.19.14l.15.16.03.02v.01q.25.24.33.35c.06.09.1.49-.01.77s-.39.45-.34.57c.32.7.53 1.41.68 2.63 0 0 .2 1.06.25 2.27.05.89-.04 1.86-.02 2.54.03.83-.43 2.14-.7 3.29V27q0 .08-.09.08h-.01q-.02 0-.03-.02a4 4 0 0 0-.05.57c0 .39.2 2.04.77 2.18 0 0-1.92.21-2.74.18l-.77-.03a26 26 0 0 1-2.79-.2l-.05.02.05.18s.42.59.42.76-.25.4-.34.47-.29.14-.4.2c-.1.07-.27.04-.41.03s-.43-.11-.43-.11-.3.07-.5.04-.21-.25-.24-.53q-.01-.15.03-.29l.04-.13.02-.04.25-.75s-.57.22-.74-.52l-.53-1.75c-.49-1.26.43-2.37.53-2.64s.39-.69.39-.69l.33-.89.05-.22-.03.02s-.38 0-1 .05v.08c-.11 1.48-.45 2-.45 2l-.81 1.23c-.1.14-.08.54-.07.64s-.07.32-.07.32c-.05.17.09.44.2.58s.27.24.34.39c.06.15-.11.37-.34.49-.22.11-.8.11-1.22.05s-.35-.51-.35-.51l.22-.64c.03-.09.03-.39 0-.55-.02-.18.16-.6.33-.83.16-.24.12-.83.11-.97l-.02-1.62h-.03l.18-.36-.05.01h-.04l-.2.37c-.66 1.2-1.62 2.35-1.66 2.49-.07.22-.1.39.08 1.16.11.47-.06.82-.22 1.02h-.04l-.03-.34q-.02-.01-.15.04l.15-.04.03.34.33 2.35.55-.13 3.04.62-.03.74-5.3 1.56v-.18l-.02.14-2.84-.93.03-.76 3-.7.19-.05 1.09-.26.16-.03-.56-1.45-.69 1.74-.19.05.19-1.33c-.2 0-.18-.28-.18-.28l-.07-1.23-.15-.17h-.03c-.55-.32-.92.14-1.5.32a5 5 0 0 1-1.21.22v-.06c-.51-.06-1.15-.78-1.15-.78l-.93-.91-.05.05c.19.21 1.54 1.62 2.09 1.73h.04c.03 0 .65-.02 1.24-.22q.27-.1.49-.22c.32-.17.57-.3.91-.13l.02.03q.05.1.14.18l.07 1.18s-.01.2.09.3l.09.06-.17 1.18-2.91.68h-.01q-.07 0-.08.09v.74s.03.07.06.09l2.88.97h.06l5.26-1.55s.07-.05.07-.09zm-4.36-2.39.42 1.13-.95.22z"/><path id="Vector_47" fill="#102C53" d="m22.22 29.06-.02.07-.02.07q0 .05-.03.11l.1-.34z"/><path id="Vector_48" fill="#102C53" d="m22.32 28.76-.02.06.03-.09z"/><path id="Vector_49" fill="#102C53" d="m7.74 23.15.05.3s.04.1-.02.18a.3.3 0 0 1-.16.07h.01l.35.04v-.05a2 2 0 0 1-.23-.55z"/><path id="Vector_50" fill="#102C53" d="m20.48 18.91-.68-.38c.06.09.28.34.68.38"/><path id="Vector_51" fill="#102C53" d="m7.69 22.85-.03-.16.03-.23-.04.18.04.2z"/><path id="Vector_53" fill="#102C53" d="M17.74 21.58v-.07l-.09-.05.04.05z"/><path id="Vector_54" fill="#102C53" d="m17.3 21.04.03.07z"/><path id="Vector_55" fill="#102C53" d="M18.03 22.45h-.01l.03.14.02.09v-.11l-.03-.14z"/><path id="Vector_57" fill="#102C53" d="m25.49 23.31-.29.05z"/><path id="Vector_58" fill="#102C53" d="M20.53 10.7q.02-.02.08-.03-.04 0-.08.03"/><path id="Vector_59" fill="#102C53" d="M22.99 11.64c-.05.01-.16.08-.2.1z"/><path id="Vector_60" fill="#102C53" d="m22.5 9.39.01-.04z"/><path id="Vector_61" fill="#102C53" d="m16.51 20.06.19.11.02.01-.01.02.1.06-.04-.09z"/><path id="Vector_62" fill="#102C53" d="m21.6 24.98-.05.02z"/><path id="Vector_63" fill="#102C53" d="m20.5 24.43-.02-.04z"/><path id="Vector_64" fill="#102C53" d="M21.32 20.8q.02 0 .05-.03l-.09.03z"/><path id="Vector_65" fill="#102C53" d="m22.77 23.28-.08.46z"/><path id="Vector_66" fill="#102C53" d="m20.98 24.27.01.01z"/><path id="Vector_67" fill="#102C53" d="M22.96 22.5s-.08-.07-.2-.09c.12.02.2.08.2.08z"/><path id="Vector_68" fill="#102C53" d="m22.4 22.49.05-.02z"/><path id="Vector_69" fill="#102C53" d="m21.64 23.29.01-.02z"/><path id="Vector_70" fill="#102C53" d="M21.46 24.18v.04l.02-.18z"/><path id="Vector_71" fill="#102C53" d="M25.66 12.21s-.04.2.03.49c-.07-.29-.03-.48-.03-.48z"/><path id="Vector_73" fill="#102C53" d="M25.83 11.94s-.02.09-.05.12l-.01.01.01-.01q.04-.05.05-.12"/><path id="Vector_75" fill="#102C53" d="m21.62 33.26-.01-.14v.12z"/><path id="Vector_76" fill="#102C53" d="m29.16 15.13.09-.2c-.13.28-.21.52-.24.61l.05-.16z"/><path id="Vector_77" fill="#102C53" d="m29.76 14.04-.09.14.07-.11z"/><path id="Vector_78" fill="#102C53" d="m29.53 14.39-.02.03z"/><path id="Vector_79" fill="#102C53" d="m30.39 13.41-.19.16.16-.14z"/><path id="Vector_81" fill="#102C53" d="m23.63 20.75-.03-.1z"/><path id="Vector_82" fill="#102C53" d="M21.83 24.82h.02l-.01.09.02-.09z"/><path id="Vector_83" fill="#102C53" d="m21.81 25.06-.04.12z"/><path id="Vector_84" fill="#102C53" d="m25.99 11.18-.02.02z"/><path id="Vector_85" fill="#102C53" d="m19.62 18.43-.44-.02.55.08z"/><path id="Vector_86" fill="#102C53" d="m21.71 24.93.02-.01.09-.1z"/><path id="Vector_87" fill="#102C53" d="M15.72 28.85v-.03z"/><path id="Vector_88" fill="#102C53" d="M20.62 24.27c-.05.03-.15.05-.14.11 0-.06.09-.07.14-.11"/><path id="Vector_89" fill="#102C53" d="M21.25 24.4q-.1.05-.13.05.03.02.13-.05"/><path id="Vector_90" fill="#102C53" d="M25.5 12.24q.02.02.05.01z"/><path id="Vector_91" fill="#102C53" d="m21.27 25.01-.25-.13zl.13.01h.06-.18z"/><path id="Vector_92" fill="#102C53" d="m21.91 22.91.34-.31zl-.09.13z"/><path id="Vector_93" fill="#102C53" d="M25.33 12.48s-.02.16-.05.23c.04-.08.07-.26.07-.26l.03-.09v.01l-.04.12z"/><path id="Vector_94" fill="#102C53" d="m20.51 24.44.06.07-.07-.07z"/><path id="Vector_95" fill="#102C53" d="M24.73 8.83c-.11.03-.33 0-.45-.01.13.02.34.05.45.01"/><path id="Vector_96" fill="#102C53" d="m23.35 10.33.06-.13z"/><path id="Vector_97" fill="#102C53" d="M25.27 10.87h-.04c-.54.4-1.19.38-1.19.38s.66.02 1.19-.39z"/><path id="Vector_98" fill="#102C53" d="m25.09 18.92-.07-.08.09.09v-.01z"/><path id="Vector_99" fill="#102C53" d="m26.27 14.66-.04-.03c-.05-.03-.2-.02-.33 0v-.09s.29-.39.76-.6c-.47.21-.77.6-.77.6v.09l-.27.04c-.09.02-.43.16-.52.15-.09 0-.32.19-.59.27q-.15.06-.18.2.11-.13.44-.3a4 4 0 0 1 1.5-.33"/><path id="Vector_100" fill="#102C53" d="M23.39 19.43a1 1 0 0 0-.02.33l.07.28.07.24-.14-.54q-.02-.15.02-.33z"/><path id="Vector_101" fill="#102C53" d="m27.31 18.93.16-.27c-.18.22-.34.48-.5.64q.16-.12.33-.37z"/><path id="Vector_102" fill="#102C53" d="M27.69 15.1s.01-.06.04-.07a7 7 0 0 1-.77-.13l.35.14z"/><path id="Vector_103" fill="#102C53" d="M16.06 27.32v-.01l-.09-.28z"/><path id="Vector_104" fill="#102C53" d="m22.11 14.92-.16-.14v-.01.01c.02 0 .1.08.16.14"/><path id="Vector_105" fill="#102C53" d="m24.08 15.56-.04.01a.4.4 0 0 0-.18.11z"/><path id="Vector_106" fill="#102C53" d="m22.13 15.24.02-.09z"/><path id="Vector_107" fill="#102C53" d="M23.65 20.82v.04l-.01-.04z"/><path id="Vector_108" fill="#102C53" d="m24.64 18.74.24.04.09.04-.04-.02c-.16-.08-.4-.17-.6-.3l-.03-.02.03.03.31.25z"/><path id="Vector_109" fill="#102C53" d="m25.44 19.5-.04-.04-.03-.03-.19-.31c.05.13.13.3.25.38z"/><path id="Vector_110" fill="#102C53" d="M24.09 18.29q.06.07.16.14c-.2-.16-.33-.48-.42-.68.03.13.1.36.26.54"/><path id="Vector_111" fill="#102C53" d="M26.71 19.48a1 1 0 0 1-.69-.08l-.08-.02h-.02l.29.12c.03.02.23.11.51 0z"/><path id="Vector_112" fill="#102C53" d="m26.87 19.39.11-.08z"/><path id="Vector_113" fill="#102C53" d="m25.64 19.53-.01.01z"/><path id="Vector_114" fill="#102C53" d="m14.36 28.81.1.23zl-.08-.26-.02-.01z"/><path id="Vector_115" fill="#102C53" d="m26.71 19.48.04-.02z"/><path id="Vector_116" fill="#102C53" d="m25.91 20.54.03-.01z"/><path id="Vector_117" fill="#102C53" d="M29.06 16.47v-.2q-.03.27-.1.54c.08-.19.1-.34.1-.34"/><path id="Vector_118" fill="#102C53" d="M4.66 22.87c.09-.11.29-.45.34-.52l.22-.53q.1-.23.14-.41l-.17.43z"/><path id="Vector_119" fill="#102C53" d="m16.51 20.06.26.11-.09-.25a1 1 0 0 1 .05-.4c.05-.07.65-.64.73-.66s.46-.34.55-.41l.12-.07h.01c.09-.05.2-.08.2-.08l.83.12h.02l.43.02.11.06h.05l.03.04.68.38q.08 0 .16.03h.02c.15.03.33.09.41.3 0 0 .17.13.08.35l.12.2c.11.09.26.21.29.32l.03.15c.15.22.03.38-.14.47l-.08.04-.05.03h-.04q-.18.06-.25.06l-.09-.03h-.09a.8.8 0 0 1-.32.51s0 .47-.02.66c0 .19-.33.12-.33.12s-.11.22-.2.24-.2.11-.27.14l-.03.01c-.07.04-.16.18-.26.24l.07-.01q.13-.05.19-.11l.05-.04q.07-.01.16-.07l.11-.07c.1-.01.19-.13.24-.22.08.01.2.01.28-.05a.2.2 0 0 0 .09-.16l.02-.62a1 1 0 0 0 .3-.47c.14 0 .38-.03.45-.05a.5.5 0 0 0 .28-.23c.11-.22.04-.47 0-.57-.05-.17-.3-.34-.43-.43a.4.4 0 0 0-.07-.46.6.6 0 0 0-.39-.32l-.04-1.71-.18.04.03 1.64h-.08a5 5 0 0 1-.66-.43c-.08-.06-.31-.09-.81-.13l-.55-.06c-.41-.07-.68.24-.78.37v.02a1 1 0 0 1-.27.18c-.13 0-.27.15-.41.31l-.03.03-.18.18-.03.03c-.21.11-.2.45-.18.67l-.2-.1c-.1-.8 0-1.44.18-1.93l-.28.76v1.22z"/><path id="Vector_120" fill="#102C53" d="m17.53 16.64.14.1c.22.16.28.2.32.3q.03.08.18.14a2.6 2.6 0 0 0 1.3.11q.08-.04.14-.14-.05 0-.06-.06l-.12.09s-.44.06-.58-.04h-.02q-.12 0-.23-.03c-.21 0-.48.02-.52-.09l-.59-.49-.62.61-.28.79c.3-.78.79-1.18.95-1.29z"/><path id="Vector_121" fill="#102C53" d="M21.48 27.41c0-.28.26-.61.44-1.01.09-.18.24-.68.39-1.16h-.01l-.19.3-.18.25q-.08.1-.14.08h-.03c-.08-.04-.12-.17-.12-.17q-.02-.07.03-.25t.1-.26l.04-.12.03-.15.01-.09h-.03l-.09.1-.02.01-.11.06-.05.02-.11.01h-.06l-.13-.01-.25-.13-.17-.13-.15-.13-.13-.11-.06-.07v-.01l-.02-.04v-.02c0-.06.09-.07.14-.11q.04-.02.03-.07c-.06-.13.08-.11.17-.09.04 0 .11.08.17.15l.01.01.13.17q.03.01.13-.05l.16-.1q.03-.03.04-.08v-.04l.01-.15.03-.21.11-.45.01-.04.02-.05.01-.02.16-.23.09-.13.34-.31.09-.07.05-.04.05-.02.08-.04.21-.02c.13.02.2.08.2.08.28-.8.58-.99.65-1.05.1-.09.25-.55.25-.55v-.05h-.02l-.17.03v-.04l-.02-.07-.03-.1-.1-.35-.07-.24-.07-.28q-.02-.16.02-.33.07-.21.18-.4l.11-.16.04-.05.13-.14.07-.08c.07-.11.12-.27.12-.27l.05-.03c-.16-.18-.22-.41-.26-.54v-.02l-.07-.15c-.05-.07-.05-.3-.07-.46q0 .26.03.53c0 .01.05.34.24.62v.02c-.04.12-.11.27-.16.3-.11.07-.62.72-.52 1.18.09.41.3 1.1.3 1.12q.03.07.1.06h.07c-.07.18-.16.39-.2.43h-.02c-.11.1-.37.32-.62.99-.16-.07-.43-.1-.72.16l-.32.29h-.01v.01l-.01.01a1.3 1.3 0 0 1-.04-1.01c.24-.6.93-.88.93-.88q.08-.04.05-.12-.04-.08-.12-.05c-.02 0-.32.14-.62.4l-.05-.88q-.02.06-.09.06h-.03s-.07-.07-.05-.12c.04-.13.14-.45.28-.8l.33-1.55q.01-.08-.07-.11a.1.1 0 0 0-.11.07c-.2.87-.43 1.94-.44 2.16-.02.37.05 1.26.05 1.35q-.14.17-.24.4-.22.56.06 1.22 0 .02.03.03c-.14.19-.15.2-.18.29s-.16.63-.16.73l-.01.19-.2.12c-.22-.3-.3-.32-.33-.32-.09-.02-.21-.03-.27.04q-.04.04-.02.14h-.01c-.05.03-.14.05-.15.14s.06.17.13.23l.28.24s.28.24.45.27a.7.7 0 0 0 .47-.06q-.02.1-.03.09c-.03.05-.2.45-.14.6.02.05.08.22.22.24.05.01.14 0 .22-.12l.04-.05-.2.57-.19.37c-.14.26-.26.47-.26.68v.52c-.34-.11-.63.04-.93.2q-.22.12-.47.21c-.4.13-.83.18-1.04.2.16-.4.58-1.58.68-2.56 0 0 .07-.61.12-1.42q0-.09-.09-.1s-.09.03-.09.09c-.05.81-.11 1.41-.11 1.41-.11.99-.57 2.25-.69 2.57a4 4 0 0 1-1.02-.75v-.02c-.04-.6-.14-2.18-.09-2.42l-.04.11-.16.39c.01.56.06 1.39.09 1.77l-.73-.74-.08.08.93.91s.64.72 1.14.78v.06s.64-.02 1.22-.22c.58-.19.95-.64 1.5-.32h.03c-.13-.23-.08-.51-.08-.73z"/><path id="Vector_122" fill="#102C53" d="M22.25 15.62c-.06.2.14.39-.12.57l-.07.05a1 1 0 0 0-.21.2v.03l-.03-.01-.03-.01-.18-.03-.05-.04-.05.14.03.01s.18.03.37-.04c.18-.07.34-.24.34-.24q.16-.13.16-.26l1.06.51q.03.12.02.21c-.05.18.07.32.15.37l.04.01-.05-.15-.02-.03-.03-.09-.01-.07-.01-.27c-.02-.12-.05-.24.03-.28l.03-.03.01-.03.04-.11.05-.14.02-.11.02-.04-.06-.02q-.07.13-.1.25c-.02.05-.04.14-.06.15q-.1.06-.09.17l-1.06-.51q-.02-.08 0-.14c.05-.12 0-.24-.03-.32l-.22-.07s.07.08.1.18q.04.09.01.19"/><path id="Vector_123" fill="#102C53" d="m18.91 22.63-.23-.09-.39-.28q.05.1.14.19c.14.16.56.36.9.32q-.15-.02-.4-.14z"/><path id="Vector_124" fill="#102C53" d="M18.07 22.58v.11l.07.28-.03.22q0 .07-.03.14l-.03.16-.02.07-.01.05-.05.2q.04.02.04.06c.17-.39.21-.8.22-.93 0-.05-.05-.25-.09-.4l-.03-.16q0 .04-.06.07l.03.14z"/><path id="Vector_125" fill="#102C53" d="M17.12 20.78c.03.09.07.11.14.18l.02.03.01.03v.02l.03.07v.02l.3.31.1.06v.07l.08.22q0-.03.06-.04c.14-.05.43-.03.6-.03h.03l.11-.03.08-.01.19-.04c.02-.09.13-.07.24-.15h.01l.09-.08q.06-.1.14-.11l.07-.03.16-.15c.02-.06.19-.09.29-.11l.05-.02.26-.15.11-.07.06-.04.05-.03q.15-.1.29-.04c.06.01.09.09.11.14l.11.05.34-.03h.01l.09-.03.08-.04c.15-.11.16-.32.14-.47l-.01-.02-.31-.44-.18-.12.05-.09q-.05-.09-.03-.15c.03-.09-.11-.4-.47-.51l-.16-.03a1 1 0 0 1-.68-.38l-.07-.04-.54-.08h-.02l-1.03-.04h-.01l-.11.14a.5.5 0 0 1 .42-.12l.56.06c.26.02.66.06.72.09 0 0 .62.45.75.46h.03l.15.01q.26.05.33.24 0 .02.03.05c.02.02.14.12 0 .31q-.02.04-.01.07 0 .05.05.06c.16.09.39.26.43.38.02.06.08.28 0 .43q-.05.1-.16.14l-.41.04c-.03-.07-.07-.17-.18-.2a.4.4 0 0 0-.36.06l-.58.32q-.2.03-.28.14c-.05.12-.24.24-.38.32l-.66.15-.59.13c-.23-.39-.83-1.23-.97-1.43l-.11-.11v-.01l-.04.05.04.09c.1.07.24.23.31.51z"/><path id="Vector_126" fill="#102C53" d="M21.02 20.86s.14-.02.25-.06l-.34.03z"/><path id="Vector_127" fill="#102C53" d="M21.46 20.73c.17-.09.28-.25.14-.47.03.16.01.36-.14.47"/><path id="Vector_128" fill="#102C53" d="m16.86 19.49.02-.01.04-.04.19-.18.03-.04q.22-.25.29-.25c.14-.02.28-.14.37-.24l.02-.03.18-.18.11-.14-.12.07c-.09.07-.48.38-.55.41a7 7 0 0 0-.73.66 1 1 0 0 0-.05.4l.09.24.04-.05c-.05-.22-.07-.57.06-.63z"/><path id="Vector_129" fill="#102C53" d="M19.77 18.5h-.05l.07.03z"/><path id="Vector_130" fill="#102C53" d="m18.33 18.29-.2.08 1.03.04z"/><path id="Vector_131" fill="#102C53" d="m21.26 19.79-.12-.2-.05.09z"/><path id="Vector_132" fill="#102C53" d="m26.18 18.38-.77.16s-.08.06-.07.11a.1.1 0 0 0 .11.07l.26-.05.07.08.07.03.06-.02.03-.07-.03-.07.3-.06s.08-.06.07-.11q-.02-.09-.11-.07z"/><path id="Vector_133" fill="#102C53" d="M23.8 15.75s-.05.09-.06.14l-.05.14-.04.11-.01.03-.05.16v.16q.04.14.02.25v.02l.01.07q0 .06.03.09l.02.03.06.06h.07a3 3 0 0 0 .05.71v.02c.09.2.22.52.42.68l.05.04.03.02c.2.14.45.22.6.3l.04.02.03.02.07.08v.01l.03.04.06.15.02.03.17.28q0 .02.03.03l.04.04a.2.2 0 0 0 .19.03l.2-.19.08.03h.02l.08.02c.14.07.44.15.69.08l.04-.02.12-.07.11-.08c.16-.16.32-.42.5-.64 0 0-.05-.07-.03-.11l.05-.14-.07.18q-.08.16-.18.28c-.47.66-.85.59-.97.54l.11-.07s.06-.08.03-.13q-.05-.06-.13-.03l-.19.11-.03.03-.19-.07-.09.01-.2.18c-.16.02-.27-.28-.33-.43l-.03-.09c-.07-.16-.24-.24-.32-.24l-.21-.03c-.2-.15-.47-.38-.51-.43-.21-.25-.26-.6-.26-.6q-.05-.31-.03-.6c.03-.78.4-1.15.4-1.15l.33-.28.28-.25.18-.09q.17-.06.29-.14a1 1 0 0 1 .29-.04h.2a4 4 0 0 1 .58.11l.43.24c.01.02.05.14 0 .24a4 4 0 0 1-.47.81c-.07.07-.16.24.06.47v.11l-.05.07q-.07.07-.11.17c-.03.11-.03.38.03.55a.2.2 0 0 0 .09.09q.15.04.39-.08l.09-.04c.07 0 .43-.08.47-.23l.1-.03q.1 0 .18-.05t.2-.25l.08-.11.07-.11.08-.11c.07-.06.11-.21.06-.3l.03-.03h.01c.1-.1.09-.26.05-.38l-.11-.21-.1-.18.04-.11.04-.09c.03-.11-.11-.21-.22-.26l.01-.03.03-.09v-.04h-.13q-.09 0-.11-.07v-.02l-.38-.06-.35-.14h-.01q-.16-.04-.34-.11v.02l-.34-.15a4 4 0 0 0-1.5.33 2 2 0 0 0-.44.3c-.04.11-.08.22-.25.26h-.01l-.21.11-.06.07zm.26-.09c.24-.05.3-.21.35-.32q.03-.13.13-.16.23-.07.39-.18l.17-.08a1 1 0 0 0 .38-.1l.18-.05q.08-.02.26-.03l.2-.01h.07a3 3 0 0 0 .7.27c.05 0 .22.06.34.1q.22.08.3.09l.22.03-.01.05c-.03.07-.08.2.04.25l.15.09-.02.03q-.06.11-.05.24.01.07.12.23l.1.18c.03.07.02.16 0 .18q-.1.07-.11.16 0 .05.03.1c0 .01 0 .07-.03.08l-.11.14-.06.09-.09.13c-.05.07-.12.18-.16.2l-.09.02c-.09.02-.22.04-.24.14a1 1 0 0 1-.29.11q-.06-.01-.18.05c-.06.03-.2.09-.24.09a1 1 0 0 1-.03-.41q.01-.05.07-.1l.09-.13c.03-.09.03-.23-.05-.32q-.12-.14-.05-.2a4 4 0 0 0 .51-.87c.07-.17.01-.37-.05-.43a3 3 0 0 0-.49-.29 4 4 0 0 0-.66-.13h-.1q-.3-.01-.48.06l-.27.13-.21.1-.3.27-.33.28s-.39.37-.45 1.14q-.03-.05-.02-.11.03-.14-.02-.29v-.04q-.02-.11 0-.14.1-.08.14-.26l.09-.23a.3.3 0 0 1 .18-.14z"/><path id="Vector_134" fill="#102C53" d="m27.78 18.2-.03-.05-.03.1.01-.01.04-.03z"/><path id="Vector_135" fill="#102C53" d="M28.97 16.18v.26c-.01.05-.24.83-.8 1.03l-.2.1-.1.06-.09.41.03-.05.11-.3c.05-.02.34-.2.4-.22l.18-.09.07-.05.11-.1q.2-.21.28-.43v-.01q.07-.28.1-.54a.1.1 0 0 1-.09-.09z"/><path id="Vector_136" fill="#102C53" d="m23.74 15.89.06-.14h-.02l-.02.03z"/><path id="Vector_137" fill="#102C53" d="M23.78 17.02h-.07l-.06-.07.05.15c.02.18.02.41.07.47l.07.15-.01-.09q-.06-.34-.04-.62z"/><path id="Vector_138" fill="#102C53" d="M23.59 16.75q.02-.11-.02-.25l.01.27z"/><path id="Vector_139" fill="#102C53" d="M35.73 29.83c-.34.03-.97.09-1.54.12h-.03c-.01 0-1.55-.32-1.66-2.77l-.18-.2-.01.05c.05 1.91.92 2.66 1.44 2.94h-.47l-.32-.01-.45-.01q-.3 0-.56-.03h-.02c-.61-.14-1.39-1.01-1.4-1.03q-.06-.06-.14 0-.05.05 0 .14c.03.03.51.57 1.03.88-1.31-.07-1.6-.11-1.65-.12l-.04-.02q-.12-.62 0-.89l.21-.34c.32-.52.95-1.51 1.41-2.61l-.03-.04q-.03-.04-.02-.09l-.21.47q-.08.2-.19.39-.14.3-.29.56l-.2.34c-.38.66-.7 1.14-.77 1.28-.14.27-.05.78 0 1.05l.05-.02c.09.06 1.45.14 2.79.2l.77.03c.82.03 2.74-.18 2.74-.18-.57-.14-.77-1.8-.77-2.18q0-.27.05-.57-.03-.01-.04-.05c-.24.95.03 2.29.49 2.76z"/><path id="Vector_140" fill="#102C53" d="m31.56 13.29-.07.07-.09.09-.1.11q-.2.21-.42.52l-.14.21-.12.21-.09.19-.09.2-.07.2-.05.2-.03.18-.01.18.02.24q0 .09.04.18l.06.18.1.2q.07.12.16.22l.15.16c.37.36.97.68 1.88.92h.01a1.4 1.4 0 0 1-1.2.24v.03l-.3.37-.18.24a16 16 0 0 0-.76 1.12l-.09.16-.22.39a14 14 0 0 0-.59 1.19l.01.13a.1.1 0 0 1-.08.1h-.02l-.2.48-.27.73-.27.86q-.13.42-.21.79l-.07.29-.03.11V25l-.01.05-.03.15-.04.21-.05.25-.04.23-.03.2-.03.19-.02.17-.02.14-.01.11.11-.14c.15-1.23.83-5.24 3.52-8.47q.23.04.44.02l-.68 2.66s.01.1.07.11q.09.02.11-.06l.7-2.74q.3-.07.56-.25l.24-.15c.37-.22.91-.55 1.1-.87l.8-.65s.16-.16.33-.37a19 19 0 0 1 .19 10.5v.1c.27-1.14.73-2.46.7-3.29-.02-.68.07-1.66.02-2.54-.05-1.2-.25-2.27-.25-2.27a8 8 0 0 0-.68-2.63c-.05-.12.22-.29.34-.57.11-.28.07-.68.01-.77q-.08-.1-.33-.35c.2.26.3.57.3.79 0 .53-.75 1.24-.76 1.25l-.81.66-.02.03a4 4 0 0 1-1.04.82l-.2.11q-2.02-.54-2.29-1.64c-.29-1.16 1.01-2.46 1.27-2.7l.01-.02.27.01c.32 0 .81-.01 1.35.39q.03.03.08.02l.62-.2q.46-.07.83.12c-.22-.17-.43-.3-.57-.29-.22 0-.74.37-.83.31-1.16-.63-1.51-.34-1.82-.47l-.03.06-.05.05z"/><path id="Vector_141" fill="#102C53" d="M31.43 25.72c.32-.79.54-1.62.49-2.35.49-.3 1.14-.22 1.14-.22q.07 0 .1-.08a.1.1 0 0 0-.08-.1c-.03 0-.77-.09-1.33.28q-.2.14-.32.32c-.24.34-1.15 1.15-2.55 2.28l-.69.55-.08.09.02-.01q.05-.05.1 0v-.01l.69-.55a38 38 0 0 0 2.19-1.88l.16-.16.22-.26.14-.16.12-.1.04-.03.01.03q.04.62-.14 1.29l-.07.26q-.07.27-.18.53l-.13.34.02-.02s.07-.03.1-.01z"/><path id="Vector_142" fill="#102C53" d="M29.64 28.81c.07-.14.39-.62.77-1.28l.2-.34.29-.56q.11-.2.19-.39l.21-.47v-.02l.13-.34.18-.53.07-.26q.18-.68.14-1.29v-.02l-.05.03-.12.1-.14.16-.22.26-.16.16-.18.18c-.56.53-1.39 1.21-2.01 1.7l.03.05s-.18 1.75-.39 2.26-.37.92-.37 1.12a3 3 0 0 1-.34 1.15l-.04.13a1 1 0 0 0-.03.29c.03.28.04.5.24.53s.5-.04.5-.04.28.1.43.11.31.03.41-.03c.11-.07.31-.14.4-.2.09-.07.34-.3.34-.47 0-.18-.42-.76-.42-.76l-.05-.18c-.06-.27-.15-.78 0-1.05zm-.03 1.26.01.03c.2.28.41.63.41.72 0 .11-.18.29-.31.39l-.19.1-.2.1a1 1 0 0 1-.29.02h-.07c-.1-.01-.32-.09-.39-.11h-.05s-.29.06-.47.04q-.15 0-.16-.45 0-.1.03-.26.07-.22.14-.34l.03-.05c.07-.15.22-.7.22-.91 0-.2.18-.66.36-1.09.22-.52.39-2.21.4-2.29v-.03a20 20 0 0 0 2.68-2.45c.03 1.74-1.41 4.04-1.96 4.92l-.22.36c-.14.29-.07.76 0 1.12l.05.18z"/><path id="Vector_143" fill="#102C53" d="m31.28 23.87.22-.26.14-.16-.14.16z"/><path id="Vector_144" fill="#102C53" d="m31.76 23.35.04-.03z"/><path id="Vector_145" fill="#102C53" d="M27.01 13.84q-.2.03-.36.11c-.47.2-.76.6-.76.6v.09c.14-.02.29-.03.34 0l.04.03c.12.03.43.14.68.24h.01q.39.08.77.13l.03-.01-.23-.03-.24-.08q-.29-.1-.4-.11l-.25-.08-.36-.17c-.03-.01-.07-.04-.25-.03.11-.12.34-.36.66-.49l.05-.03a8 8 0 0 1 3.9-.86c-.99.45-1.56 1.85-1.7 2.3l.06.1c.03-.09.11-.33.24-.61l.03-.06.13-.25.04-.07.09-.16.09-.14.05-.08.09-.14.12-.16.14-.16.17-.15.19-.16.15-.1.19-.09v-.11a5 5 0 0 0-1.32.01l-.36.02-.07.01h-.01q-1.25.25-1.95.69"/><path id="Vector_146" fill="#102C53" d="M26.61 14.79q.16.07.34.11c-.25-.09-.55-.21-.68-.24l.33.15z"/><path id="Vector_147" fill="#102C53" d="m30.36 13.43-.16.14q-.24.21-.43.47l-.02.03-.07.11-.14.22-.02.03-.07.13-.06.11-.11.21-.03.06-.09.2-.1.26-.05.16.05.11q.03-.01.03-.06c0-.01.55-1.85 1.7-2.32.26-.15.56-.1.72-.07-.37.37-1.56 1.64-1.26 2.83q.3 1.15 2.25 1.72a1.4 1.4 0 0 1-.97.11c-1.21-.25-2.37-1.75-2.38-1.77v.05q0 .04-.03.07l.1.13.01.01.03.03.11.12v.01l.01.01v.02l.23.23.16.16.05.05.02.01.05.05v.01l.02.03.19.16.09.07.2.15.35.2.19.09.23.09.11.03.15.04.18.03q.52.07 1.02-.26h-.01a4.4 4.4 0 0 1-1.88-.93l-.15-.16-.16-.22a2 2 0 0 1-.16-.38l-.04-.18-.02-.24.01-.18.03-.18q.01-.1.05-.2l.07-.2.09-.2.09-.19.12-.21.14-.21a5 5 0 0 1 .52-.63l.09-.09.07-.07.05-.05.03-.06-.16-.06a1.5 1.5 0 0 0-1.1.29l-.03.02z"/><path id="Vector_148" fill="#102C53" d="M30.19 13.57q-.1.07-.17.15l-.14.16a2 2 0 0 0 .31-.31"/><path id="Vector_149" fill="#102C53" d="M30.39 13.41q.16-.12.34-.2l-.19.09z"/><path id="Vector_150" fill="#102C53" d="m29.25 14.93.03-.06z"/><path id="Vector_151" fill="#102C53" d="m29.4 14.62-.02.04.06-.11z"/><path id="Vector_152" fill="#102C53" d="m29.62 14.25-.09.14.14-.22z"/><path id="Vector_153" fill="#102C53" d="M28.46 21.41c.01-.27-.12-.89-.22-1.14s-.07-.45-.05-.64c.01-.1.08-.39.16-.67l.07-.31.07-.28h-.09l-.12.5c-.07.31-.16.64-.17.74-.03.2-.06.42.05.69.09.26.22.86.21 1.1-.02.27-.15 1-.24 1.39q0 .07-.03.14-.21-.01-.95.05-.97.09-1.92.29.39-.85.34-1.42l.57-1.24v-.05q.22-.1.38-.26c.23-.26.85-1.27.87-1.31v-.02l.18-.28.01-.03-.07.03h-.03l-.01-.01-.16.27s-.63 1.05-.86 1.3l-.02.02-.2.15-.02.01-.26.12.1.05-.58 1.24c.04.44-.14.99-.4 1.54h.09l.01-.02h.02v.01l.29-.05.78-.14.24-.03.2-.03.11-.01.31-.03c.62-.05 1-.05 1-.05l.03-.02.04-.19c.09-.41.22-1.13.24-1.4z"/><path id="Vector_154" fill="#102C53" d="m27.74 18.23-.01.01-.05.18.1-.23z"/><path id="Vector_155" fill="#102C53" d="M29.07 16.27v.2s-.02.15-.1.34v.01l-.09.3c.21-.3.3-.62.3-.66v-.05a5 5 0 0 0 2.2 1.61 15 15 0 0 0-2.02 3.28l.01.16.2-.43q.18-.38.39-.76l.22-.39.09-.16a10 10 0 0 1 .94-1.36l.3-.37v-.03l-.15-.04-.11-.03-.23-.09-.19-.09-.14-.07-.21-.13-.2-.15-.09-.07-.19-.16-.03-.03v-.01l-.05-.05-.02-.01-.05-.05-.16-.16-.23-.23v-.01h-.01l-.01-.03-.01-.01-.1-.11-.03-.03-.01-.01-.1-.12-.05.02z"/><path id="Vector_156" fill="#102C53" d="M28.21 29.34c0-.2.15-.61.37-1.12s.39-2.26.39-2.26l-.03-.05-.69.55v.01s.03.09-.01.12c0 0-.21.18-.24.37.12-.18.28-.4.32-.43l.55-.44c-.03.28-.11.93-.2 1.45q.04.03.03.09t-.05.05q-.07.32-.14.49a4 4 0 0 0-.42 1.5l-.04-.02c-.31-.05-.41-.07-.76-1.14l-.2-.73c-.43-1.12-.09-1.93.05-2.28l.04-.09c.09-.26.68-1.4.69-1.41l.37-.79.05-.22.04-.19c.09-.4.23-1.13.24-1.41.02-.29-.12-.93-.22-1.18a1 1 0 0 1-.04-.6c.01-.1.09-.43.17-.73l.13-.55h-.09l-.07.28-.07.31-.16.67c-.03.2-.05.4.05.64.09.25.23.87.22 1.14s-.15.99-.24 1.4l-.04.19-.05.22-.33.89s-.29.43-.39.69-1.02 1.37-.53 2.64l.53 1.75c.18.74.74.52.74.52l-.25.75.11-.24a3 3 0 0 0 .21-.87z"/><path id="Vector_157" fill="#102C53" d="m27.82 26.91.1-.23.01-.12.02-.14.02-.17.03-.19.03-.2q0-.1.04-.23l.05-.25q0-.1.04-.21l.03-.15.01-.05v-.02l.03-.11.07-.29q.08-.37.21-.79l.13-.42.14-.44.27-.73.2-.48q-.05 0-.06-.05c-1.2 2.79-1.37 5.24-1.38 5.28z"/><path id="Vector_158" fill="#102C53" d="m28.56 17.35-.07.05q-.07.05-.18.09c-.06.03-.34.2-.4.22l-.11.3-.03.05-.02.09.03.05v-.01l.19-.39.09-.05.17-.09q.41-.17.62-.52l.09-.3a2 2 0 0 1-.28.43l-.11.1z"/><path id="Vector_159" fill="#102C53" d="M29.39 16.55v-.01z"/><path id="Vector_160" fill="#102C53" d="m29.38 16.54-.11-.11z"/><path id="Vector_161" fill="#102C53" d="m29.97 17.1.03.03-.02-.03z"/><path id="Vector_162" fill="#102C53" d="M21.61 33.12v.14l.02.05v.26l5.3-1.56.03-.74-5.32 1.51-.02.34zm.11-.26 5.11-1.45v.55l-5.11 1.5z"/><path id="Vector_163" fill="#102C53" d="m26.98 19.3-.11.08-.02.01-.1.05-.04.02c-.28.12-.48.02-.51 0l-.29-.12q-.14.02-.26.14l-.02.02-.06.04q-.06.02-.13-.07a3 3 0 0 1-.34-.57q-.04-.06-.09-.09l-.03-.02-.09-.04-.24-.04-.31-.25-.03-.03-.03-.02-.01-.01q-.1-.05-.16-.14l-.05.03s-.05.16-.12.27l-.07.08-.13.14-.04.05-.11.16q-.11.19-.18.4a1 1 0 0 0-.02.33l.14.54.05.16.05.19.03.1.02.07.01.04.17-.02h.03l.82-.1.99-.12h.02l.23-.07.03-.01.26-.12.02-.01.2-.15.02-.02c.11-.13.32-.45.51-.74l.32-.51.03-.04q-.18.25-.33.37zm-.58.87q-.14.15-.47.28l-.26.08-1.93.24c-.05-.2-.2-.7-.27-1.02-.08-.37.37-.95.45-1s.16-.22.2-.32l.49.39.04.02.25.04c.03 0 .12.04.17.14l.03.07c.08.21.25.64.58.54l.04-.02.16-.16.3.13c.07.03.33.14.68-.05-.17.26-.35.54-.45.65z"/><path id="Vector_164" fill="#102C53" d="m23.5 20.3.1.35-.05-.19z"/><path id="Vector_166" fill="#102C53" d="m23.68 18.86.04-.05z"/><path id="Vector_167" fill="#102C53" d="m23.85 18.67.07-.08zl-.13.14z"/><path id="Vector_168" fill="#102C53" d="m25.19 19.12-.06-.15q0-.02-.03-.04z"/><path id="Vector_169" fill="#102C53" d="m25.57 19.57.06-.04q-.1.02-.19-.03.08.1.13.07"/><path id="Vector_170" fill="#102C53" d="m26.98 19.3-.01.01z"/><path id="Vector_171" fill="#102C53" d="m24.98 18.82.03.02z"/><path id="Vector_172" fill="#102C53" d="m26.87 19.39-.12.07.1-.05z"/><path id="Vector_173" fill="#102C53" d="m24.3 18.47-.05-.04.01.01z"/><path id="Vector_174" fill="#102C53" d="m25.91 19.37-.08-.03-.2.19.02-.02q.11-.12.26-.14"/><path id="Vector_175" fill="#102C53" d="M26.97 19.49c-.19.29-.4.62-.51.74l-.02.02.02-.02c.22-.25.86-1.3.86-1.3l-.03.04z"/><path id="Vector_176" fill="#102C53" d="m26.23 20.4-.02.01z"/><path id="Vector_177" fill="#102C53" d="M26.26 10.28q.04.17 0 .23c-.06.07-.17.14-.17.21s0 .38-.1.46l-.02.02q-.13.14-.13.23l.02.17v.3l-.02.04q-.01.08-.05.12l-.01.01-.12.12s-.04.2.03.49q.07.36.5.84.17.2.45.39v.02l.02.02q.16-.08.36-.11l.21-.12c.44-.24 1.09-.5 1.75-.57l.18-.04.2-.06s-.23-.3-.7-.63l.02-.03v-.13c0-.26-.3-.77-.3-.77-.8-1.32-2.05-1.77-2.05-1.77l-.07-.03-.02.07q-.04.1-.03.2t.06.29zm.06-.46c.16.07 1.26.53 1.98 1.72.08.14.28.52.28.72a4 4 0 0 0-.68-.37q-.08-.03-.12.05t.05.12q.39.15.77.43.44.35.55.53a10 10 0 0 0-2.47.8c-1.06-.75-.95-1.49-.93-1.59l.11-.12c.14-.17.09-.47.07-.63v-.06q0-.06.11-.19c.11-.08.13-.29.14-.49v-.03l.07-.08.07-.07c.07-.08.04-.24 0-.49l-.03-.11z"/><path id="Vector_178" fill="#102C53" d="m27.01 13.84.2-.12-.21.12z"/><path id="Vector_179" fill="#102C53" d="m26.72 23.11-.2.03-.24.03q-.37.05-.78.14l-.28.06h-.03l-.18.34h.03l.02 1.64c0 .14.05.73-.11.97-.17.24-.35.66-.33.83s.02.47 0 .55l-.22.64s-.07.46.35.51 1 .06 1.22-.05.4-.34.34-.49c-.07-.15-.23-.25-.34-.39s-.25-.41-.2-.58c0 0 .07-.23.07-.32 0-.1-.03-.5.07-.64l.81-1.23s.34-.51.46-2v-.08l-.32.03-.11.01zm-.1 1.99-.81 1.23q-.12.15-.09.69c0 .06-.03.22-.06.3-.06.22.11.53.22.66q.08.1.16.17.12.1.16.2c.04.08-.09.26-.29.37s-.75.09-1.17.04a.2.2 0 0 1-.2-.1c-.09-.11-.07-.28-.07-.28l.21-.64c.04-.11.03-.45.01-.6s.15-.53.31-.76.16-.68.14-.99v-1.91q.97-.2 1.92-.31c-.11 1.41-.44 1.93-.45 1.93z"/><path id="Vector_180" fill="#102C53" d="m25.18 23.35-.01.02h.03-.02z"/><path id="Vector_181" fill="#102C53" d="M23.16 7.74q-.12.14-.19.25V8a3 3 0 0 0-.26.72c-.01.07-.12.39-.19.63l-.01.04-.04.21c0 .2.12 1.13.16 1.26s.22.51.2.57l-.06.33.02-.01c.04-.02.15-.09.2-.1h.1q.08 0 .14-.08v-.01c.02-.09.06-.42.04-.61-.03-.19-.09-.31-.04-.43q.04-.09.11-.17l.07-.13.02-.1c0-.17.06-.53.11-.6l.06-.1.24-.42.05-.06.02-.02.25-.09h.12c.13.02.34.05.45.01h.04c.11-.06.6-.46.6-.46l.09.41.04.1.15.19.13.14c.08.07.16.47.15.54l-.66 1.08v.04l-.09.85-.12.69s.11.31.17.33q.03 0 .04-.03l.05-.23.04-.12v-.05s.08-.11.12-.07q.02.02.05.01.04 0 .1-.05l.12-.12.01-.01q.04-.05.05-.12l.02-.04v-.3l-.02-.17c0-.05.05-.16.13-.23l.02-.02c.1-.08.1-.39.1-.46s.11-.14.17-.21q.04-.06 0-.23l-.06-.29q0-.1.03-.2l.02-.07.02-.04c.05-.12.09-.56.08-.64s.07-.22.1-.37-.23-.62-.36-.92c-.13-.29-.6-.31-.6-.31-.41-.42-1.17-.34-1.17-.34s-.64.15-.74.23c-.07.05-.26.25-.42.43zm.1.03c.16-.19.32-.35.38-.39s.41-.14.68-.22c.01 0 .72-.07 1.1.32l.06.03s.41.02.52.26l.1.22c.09.2.27.56.26.64l-.05.16q-.06.13-.05.24c.01.07-.03.49-.07.6v.05a.6.6 0 0 0-.04.45c.01.09.06.28.05.32l-.06.06q-.1.09-.14.2v.03c-.01.29-.05.34-.07.36a.5.5 0 0 0-.18.32v.09c.01.11.05.39-.03.49l-.09.1q-.07-.01-.18.05l-.1.07-.04.05-.08.3-.14-.21.19-.66.08-.85.66-1.08.01-.03c.02-.09-.06-.52-.18-.63-.1-.08-.28-.31-.3-.37-.01-.1-.09-.41-.09-.43q0-.04-.06-.07-.05 0-.09.02l-.58.45c-.05.03-.3 0-.4-.01l-.11-.01c-.11 0-.38.07-.45.22-.06.11-.25.45-.3.51-.07.1-.13.49-.13.65q0 .08-.07.18l-.03.03-.09.16c-.04.11-.01.2 0 .32l.03.16c.02.18-.01.49-.03.57l-.13.03q-.01-.01-.13.04 0-.1.03-.14c0-.06-.02-.16-.13-.42l-.08-.2c-.03-.11-.16-1.03-.16-1.22 0-.11.09-.42.16-.62l.07-.25c.01-.09.16-.53.26-.7l.16-.2q.04-.01.06-.05z"/><path id="Vector_182" fill="#102C53" d="m26.26 10.28-.06-.29q0-.1.03-.2-.04.1-.03.2t.06.29"/><path id="Vector_183" fill="#102C53" d="m25.83 11.94.02-.04z"/><path id="Vector_184" fill="#102C53" d="M25.78 12.08q-.06.08-.12.12z"/><path id="Vector_185" fill="#102C53" d="M25.96 11.2q-.12.14-.13.23l.02.17-.02-.17c0-.05.05-.16.13-.23"/><path id="Vector_186" fill="#102C53" d="M22.5 28.37q-.08.14-.17.36l-.03.09-.05.15-.1.34-.03.11c-.04.2-.15.38-.16.39l-.19 1.33.19-.05.69-1.74.56 1.45h.03l.11-.03-.33-2.35-.03-.34q-.02-.01-.15.04a.7.7 0 0 0-.34.25m.43.07.34 2.27h-.01l-.51-1.37q-.02-.06-.09-.06a.1.1 0 0 0-.09.05l-.67 1.7h-.01l.17-1.2q.1-.2.15-.38c.05-.23.2-.78.36-1.03a.6.6 0 0 1 .34-.23z"/><path id="Vector_187" fill="#102C53" d="M24.43 10.93q0-.08-.09-.1c-.14 0-.24-.09-.24-.09a.1.1 0 0 0-.14.01q-.05.06.01.13s.15.12.35.14q.08 0 .09-.09z"/><path id="Vector_188" fill="#102C53" d="M23.97 9.87q0 .09.07.11h.01s.09-.03.09-.08v-.04l.23.03q.08 0 .09-.09a.1.1 0 0 0-.09-.09c-.26 0-.51-.16-.51-.16q-.08-.04-.13.03-.04.08.03.13l.2.1z"/><path id="Vector_189" fill="#102C53" d="M25.23 10.86h.04v-.03l.67-1.08c.01-.07-.07-.47-.15-.54l-.13-.14-.15-.19-.05-.1c-.01-.1-.09-.41-.09-.41s-.49.4-.6.46h-.04c-.11.03-.33 0-.45-.01h-.12l-.25.09-.02.02-.05.06-.24.42-.06.1c-.05.07-.11.43-.11.6l-.02.1-.06.13h.04s.14.48.39.74q.11.12.26.17s.65.02 1.19-.39m-1.75-.56a.4.4 0 0 0 .05-.2 2 2 0 0 1 .09-.55l.3-.53c.03-.06.2-.11.28-.11h.11q.34.06.51 0l.49-.37.05.26c.02.15.3.44.35.49s.12.35.12.45l-.29.48h-.01c-.26 0-.51-.16-.51-.16q-.08-.03-.13.03-.04.07.03.13l.13.06v.06s0 .1.06.11q.08.01.11-.07v-.03l.22.05-.25.41h-.01c-.48.37-1.08.37-1.12.37-.3-.08-.52-.64-.58-.85z"/><path id="Vector_190" fill="#102C53" d="m24.41 10.52-.09-.01-.05-.04q-.08-.01-.12.06 0 .05.02.09.05.07.24.09s.09-.04.09-.09q0-.08-.09-.1"/><path id="Vector_191" fill="#102C53" d="M25.5 8.87s-.04-.07-.04-.1l.05.1z"/><path id="Vector_192" fill="#102C53" d="m23.89 8.92.02-.02z"/><path id="Vector_193" fill="#102C53" d="m23.54 9.5.06-.1zc-.05.07-.11.43-.11.6l-.02.1.02-.1c0-.17.06-.53.11-.6"/><path id="Vector_194" fill="#102C53" d="m23.31 31.01-.08-.2-.16.03-1.09.26-.19.05-3 .7 2.83.93 5.32-1.51-3.04-.62-.55.13v.06l-.06.17zm.23.74s.07-.05.07-.1l-.11-.8.42-.1 2.63.54-4.9 1.4-2.5-.83 2.53-.59-.15.8s.02.09.06.11q.09.01.11-.05l.35-.95 1.1-.26.28.76s.06.07.11.06z"/><path id="Vector_195" fill="#102C53" d="m23.23 30.81.08.2.06-.17-.01-.06-.1.03z"/><path id="Vector_196" fill="#102C53" d="m26.05 20.58-.1-.05-.03.01-.23.07h-.02l-.99.12-.82.1v.05s-.14.47-.24.55c-.07.06-.37.25-.65 1.05a6 6 0 0 0-.28 1.24l-.05.35-.17.6-.16.54c-.14.48-.3.97-.39 1.16-.18.41-.43.73-.44 1.01 0 .22-.05.5.08.72q.05.1.15.18l.07 1.23s-.02.28.18.28c0 0 .11-.19.16-.39l.03-.11.03-.11.02-.07.02-.07.03-.09.05-.15.02-.06.01-.03q.08-.22.17-.36a.6.6 0 0 1 .35-.25l.15-.04.03.34h.04c.16-.21.32-.56.22-1.03-.18-.77-.16-.94-.08-1.16.04-.14 1.01-1.29 1.66-2.49l.2-.38c.26-.55.44-1.1.4-1.54l.58-1.24zm-.67 1.25q.05.58-.39 1.49l-.2.38c-.43.79-1 1.56-1.35 2.03-.22.3-.3.42-.32.48-.08.26-.1.45.08 1.21.07.32 0 .59-.1.78v-.12a.1.1 0 0 0-.11-.09.8.8 0 0 0-.57.33c-.18.29-.34.88-.39 1.09q-.02.09-.11.3c-.03-.03-.04-.13-.04-.18l-.07-1.23s-.01-.05-.03-.07l-.13-.14-.01-.03-.02-.04a1 1 0 0 1-.04-.48v-.14c0-.17.11-.37.24-.6l.2-.38q.1-.24.39-1.18l.33-1.16q.11-.94.33-1.57c.24-.7.49-.92.59-.99l.03-.03c.11-.09.24-.48.28-.59l1.74-.22s.1-.02.22-.07l-.53 1.14v.05z"/><path id="Vector_197" fill="#102C53" d="m23.86 20.84.82-.1z"/><path id="Vector_199" fill="#102C53" d="M22.5 28.37q.17-.21.34-.25a.6.6 0 0 0-.35.25z"/><path id="Vector_200" fill="#102C53" d="m22.13 29.43.03-.11q0 .06-.03.11c-.04.19-.15.37-.16.39 0 0 .11-.19.16-.39"/><path id="Vector_201" fill="#102C53" d="M22.96 22.5s-.08-.07-.2-.09l-.21.02q-.04 0-.08.04l-.05.02q-.03.01-.05.04l-.09.07-.34.31-.09.13-.16.23-.01.02-.02.04-.01.04-.11.45-.03.21-.02.18q0 .06-.03.09l-.16.1q-.1.06-.13.05-.01-.04-.12-.17l-.01-.01q-.1-.12-.17-.15c-.09-.02-.23-.03-.17.09q.02.04-.03.07c-.05.03-.15.05-.14.11v.02l.02.04v.01l.07.07.13.11.15.13.04.03.11.08.02.01q.13.1.25.13h.18l.11-.01.05-.02.11-.06q.06-.04.11-.11h.03l-.02.09-.03.15-.04.12a1 1 0 0 0-.13.51s.04.13.12.17h.03q.06.02.14-.09l.18-.24.19-.3h.01l.16-.53.17-.6.05-.35.08-.46q.1-.45.2-.78zm-.41 1.57-.32 1.09-.01.02-.19.3-.18.25-.05.05q-.03-.01-.08-.13c0-.05.07-.33.13-.42.02-.03.05-.11.1-.39l.05-.3a.3.3 0 0 0 .28-.3q.02-.18.09-.28l.05-.1q.02-.09-.06-.11t-.11.06l-.03.07a1 1 0 0 0-.11.35c0 .11-.09.13-.12.13-.1-.01-.08-.2-.06-.37v-.05q0-.09-.08-.1-.08 0-.1.08v.04c-.03.12-.07.4.08.52l-.03.26q-.03 0-.04.03c-.11.18-.34.18-.45.16a1 1 0 0 1-.37-.24l-.28-.24-.05-.05h.01q.08-.02.14-.11v-.08h.06q.06.03.26.3c.03.04.08.11.42-.14.1-.07.09-.34.09-.34 0-.07.11-.57.16-.67q.02-.06.17-.26l.09-.12.34-.3c.26-.24.46-.17.54-.13q-.2.64-.31 1.53z"/><path id="Vector_202" fill="#102C53" d="m21.65 23.27.16-.23z"/><path id="Vector_203" fill="#102C53" d="m22.1 25.53-.18.24q-.08.1-.14.09.06.02.14-.08z"/><path id="Vector_204" fill="#102C53" d="m22.75 22.41-.21.02q.12-.03.21-.02"/><path id="Vector_205" fill="#102C53" d="M21.82 24.82h.01l-.01-.01z"/><path id="Vector_206" fill="#102C53" d="m21.56 25-.11.01z"/><path id="Vector_207" fill="#102C53" d="m22.35 22.53.05-.04z"/><path id="Vector_208" fill="#102C53" d="M21.64 25.68s0-.14.03-.25q-.05.18-.03.25s.04.13.12.17c-.07-.04-.12-.17-.12-.17"/><path id="Vector_209" fill="#102C53" d="m22.45 22.47.08-.04q-.04 0-.08.04"/><path id="Vector_210" fill="#102C53" d="M21.45 24.22s-.02.07-.04.08l-.16.1.16-.1q.03-.03.03-.09z"/><path id="Vector_211" fill="#102C53" d="m21.81 25.06.03-.15z"/><path id="Vector_212" fill="#102C53" d="M21.5 23.82q-.04.16-.03.21z"/><path id="Vector_213" fill="#102C53" d="m21.12 24.45-.13-.17z"/><path id="Vector_214" fill="#102C53" d="m21.64 23.29-.02.05-.01.04.01-.04.02-.04z"/><path id="Vector_215" fill="#102C53" d="M20.82 24.12c.04 0 .11.08.17.15q-.1-.12-.17-.15"/><path id="Vector_216" fill="#102C53" d="m21.71 24.93-.11.06z"/><path id="Vector_217" fill="#102C53" d="m20.9 24.79-.04-.03.17.13-.02-.01z"/><path id="Vector_218" fill="#102C53" d="m21.8 14.13.01.08s.03.16.07.27l.03.08c.04.08.02.16.02.2v.01c.02 0 .1.08.16.14q.05.06.06.1l-.01.11v.01l-.01.01-.02.09.22.07-.03-.04.03-.09c0-.11-.15-.24-.22-.3q.01-.08-.04-.2c-.03-.06-.07-.23-.09-.31l-.02-.11c.13-.29.33-.76.36-.8.02-.03.56-.87.07-2.26v-.03l-.28-1.08s-.06-.07-.11-.07q-.08.03-.07.11l.2.76q-.08 0-.18.09a1 1 0 0 0-.09-.34c-.22-.51-1.07-.88-1.32-.99l-.2-.03v-.03c-.01-.02-.25-.47.18-.99.48-.56.62-.62.78-.64l.55-.07.04-.02c.03-.01.56-.39 1.11-.11l-.13.18c-.11.2-.27.64-.28.75l-.07.23c-.09.28-.17.53-.17.66 0 .22.13 1.15.17 1.29l.08.21.12.31-.06.34q-.01.05.04.09t.09 0l.2-.11c.05 0 .28 0 .32-.16.03-.1.07-.43.04-.65q0-.1-.03-.17-.04-.14-.01-.22l.02-.04c.09.25.32.75.69.85.03 0 .6.01 1.13-.31l-.07.66-.2.69v.07c.2.34.28.37.3.38l.09-.01c.03-.01.1-.05.19-.45l.08-.05c-.02.27.05.94.93 1.61-.41.22-.67.55-.68.57l-.02.06q-.11 0-.19.03-.06 0-.19.06c-.09.03-.26.09-.3.09q-.1 0-.26.11-.15.09-.35.16c-.16.05-.21.17-.25.27s-.07.18-.21.21a.5.5 0 0 0-.3.22v.02h.05v.02l.07-.05h.02q.07-.08.18-.11l.04-.01q.13-.06.16-.14l.08-.12q.03-.14.18-.2c.26-.08.49-.27.59-.27s.43-.14.52-.15l.27-.04v-.09s.3-.39.77-.6v-.02l-.02-.02a4 4 0 0 1-.45-.39q-.43-.48-.5-.84c-.07-.29-.03-.48-.03-.48s-.08.05-.11.05l-.05-.01c-.03-.03-.1.08-.12.11l-.03.09s-.03.18-.07.26q-.02.04-.04.03c-.06-.02-.17-.33-.17-.33l.12-.69.09-.85h-.04c-.54.41-1.19.39-1.19.39a1 1 0 0 1-.26-.17 2 2 0 0 1-.39-.74h-.04l-.11.17c-.05.12.01.24.04.43s-.01.51-.04.61v.01q-.04.07-.14.08H23c-.05.01-.16.08-.2.1l-.02.01.06-.33c.01-.07-.16-.45-.2-.57a9 9 0 0 1-.16-1.26q0-.07.04-.21l.01-.04c.06-.25.18-.56.19-.63l.02-.1c.05-.16.15-.46.24-.62v-.01l.19-.25c-.64-.41-1.3.07-1.3.07l-.56.07c-.2.03-.36.1-.84.67s-.19 1.09-.19 1.09v.09a.4.4 0 0 1 .25.02l.21.09c.35.16.9.47 1.06.84q.13.31.06.49l-.05.1s.37-.45.46-.22c.59 1.47 0 2.35 0 2.35l-.35.56-.1.16z"/><path id="Vector_219" fill="#102C53" d="m23.78 15.75-.01-.01-.05-.02-.01.01z"/><path id="Vector_220" fill="#102C53" d="m23.8 15.75.06-.07h-.02l-.07.05h.02z"/><path id="Vector_221" fill="#102C53" d="m24.33 15.3-.08.12q-.02.07-.16.14c.16-.05.21-.16.25-.26z"/><path id="Vector_222" fill="#102C53" d="m26.65 13.95-.01-.02z"/><path id="Vector_223" fill="#102C53" d="m23.24 10.5.11-.17z"/><path id="Vector_224" fill="#102C53" d="M22.83 11.42c.01-.07-.16-.45-.2-.57a9 9 0 0 1-.16-1.26q0-.07.04-.21l-.04.21c0 .2.12 1.13.16 1.26s.22.51.2.57l-.06.33.02-.01-.02.01z"/><path id="Vector_225" fill="#102C53" d="m25.55 12.25.11-.05z"/><path id="Vector_226" fill="#102C53" d="M25.23 12.73q.03 0 .04-.03-.02.04-.04.03"/><path id="Vector_227" fill="#102C53" d="m22.72 8.62-.02.1c-.01.07-.12.39-.19.63.06-.25.18-.56.19-.63z"/><path id="Vector_229" fill="#102C53" d="M25.39 12.31v.04s.08-.14.11-.11c-.04-.04-.11.08-.11.07"/><path id="Vector_231" fill="#102C53" d="m21.37 16.26.02.02.02.01z"/><path id="Vector_232" fill="#102C53" d="M21.22 15.91c.01.22.07.24.08.28l.04.05-.04-.05c-.02-.04-.07-.06-.09-.27z"/><path id="Vector_233" fill="#102C53" d="M19.79 16.37c-.06.12-.08.4-.09.53q0 .05-.04.09h.05c.1-.24.16-.53.17-.62.01-.16.03-.33-.03-.59l-.08-.24c.23.06.69.16 1.36.16 0 .37.16.52.24.6l.03.03.01-.03v-.01l-.02-.01-.02-.02-.03-.03-.04-.05c-.02-.04-.07-.06-.08-.28v-.27l-.04-.07.04-.02q.18-.1.36-.23l.02-.05c.05-.12 0-.33-.01-.42v-.11l-.01-.08v-.15l-.01-.09v-.08l-.02-.08-.06.05.02.13.01.06-.05.02c-.14.1-.43.16-.43.16a.1.1 0 0 0-.07.11q.03.07.11.07s.28-.06.46-.17l.01.11.03.12c.07.27.07.36.06.38q-.16.12-.37.21l-.05.02c-.88 0-1.4-.17-1.47-.2a1 1 0 0 1-.08-.48 1 1 0 0 0-.2-.57l-.04-.05c-.09-.11-.18-.22-.15-.41.03-.26.24-.58.3-.61l.07-.03c.14-.06.39-.18.82-.08l.25.22.05.04.07-.07-.08-.04-.26-.22c-.45-.11-.72 0-.87.06l-.1.04q-.08.03-.17.19a1 1 0 0 0-.2.49v.18q.04.14.12.24l.09.12c.1.13.19.36.18.51 0 .15.04.44.16.71l.08.23.01.03c.06.23.08.47.04.56z"/><path id="Vector_234" fill="#102C53" d="m21.48 14.28-.01-.04.02.08z"/><path id="Vector_235" fill="#102C53" d="M21.51 14.4v-.04zl.01.09v.05z"/><path id="Vector_236" fill="#102C53" d="M20.95 13.36q0 .04-.03.06l-.04.05.1.07.07.09.17.09-.02-.03-.01-.03q.02-.07-.13-.23z"/><path id="Vector_237" fill="#102C53" d="M20.21 13.55c-.2.03-.42.32-.46.37q-.04.07.02.14l.05.01.07-.03q.06-.1.17-.19v.01l.03.05s.09.05.14.03q.06-.05.02-.14l-.03-.05-.01-.01h.03q.07.05.13-.01a.1.1 0 0 0-.01-.14.2.2 0 0 0-.16-.04z"/><path id="Vector_238" fill="#102C53" d="m21.18 15.56.03-.02z"/><path id="Vector_239" fill="#102C53" d="M19.89 21.47h-.01s-.05.1-.01.14q.04.04.07.03l.06-.02.07-.07.14.05a.1.1 0 0 0 .11-.07q.02-.09-.07-.11c-.11-.03-.3-.1-.33-.17q-.06-.07-.13-.03t-.03.13a.3.3 0 0 0 .13.12"/><path id="Vector_240" fill="#102C53" d="m17.95 22.07-.03-.12h-.02l.01.07z"/><path id="Vector_241" fill="#102C53" d="m20.42 20.7-.05.03-.06.04-.11.07-.26.15-.44.26-.05.03-.03.02-.17.12-.09.08h-.01l-.12.12.18-.05c.4-.22.46-.37.47-.41l.16-.05.08-.02c.11-.04.47-.26.56-.32q.1-.07.2-.03.03.01.05.11a.6.6 0 0 1-.27.43.1.1 0 0 0-.04.08l-.02.66-.01.03s-.14.02-.2 0l-.16-.08a.1.1 0 0 0-.09-.07q-.08 0-.1.09.02.13.2.21l-.08.09-.09.03q0-.02-.03-.03l-.13-.1s-.09-.03-.13.01a.1.1 0 0 0 .01.13l.11.09-.03.01q-.09.02-.14.09a.2.2 0 0 1-.12.07c-.28.08-.73-.11-.85-.25-.1-.11-.2-.29-.24-.38h-.14l.37.49.36.19h.01c.16.05.36.1.43.06q.16-.12.3-.18l.03-.01c.07-.02.18-.12.27-.14.09-.01.2-.24.2-.24s.32.07.33-.12l.02-.66s.26-.16.32-.51l-.01-.05c-.14-.07-.3-.14-.39-.09"/><path id="Vector_242" fill="#102C53" d="m17.92 21.95.03.12.07.11.02-.02-.05-.22z"/><path id="Vector_243" fill="#102C53" d="m18.91 22.63-.36-.19-.37-.49h-.06v.03l.04.08q.05-.01.1.02a.1.1 0 0 1-.01.14l.02.03.39.28.23.09z"/><path id="Vector_244" fill="#102C53" d="m17.88 21.87.02.07h.02l-.04-.18-.06.04.04.07z"/><path id="Vector_245" fill="#102C53" d="M20.81 20.79c-.01-.05-.05-.13-.11-.14a.3.3 0 0 0-.29.04l-.05.03.05-.03c.09-.04.26.03.39.09z"/><path id="Vector_246" fill="#102C53" d="m18.09 21.83.39-.09c-.17 0-.46-.02-.6.03l.16.07h.04z"/><path id="Vector_247" fill="#102C53" d="m19.93 20.98-.05.02c-.1.03-.27.05-.29.11l-.16.15q.03 0 .05-.03l.44-.26z"/><path id="Vector_248" fill="#102C53" d="m19.44 21.26-.07.03q-.06.02-.14.11l.17-.12z"/><path id="Vector_249" fill="#102C53" d="M19.14 21.49c-.11.08-.22.06-.24.15l.11-.03z"/><path id="Vector_250" fill="#102C53" d="m18.18 21.86-.03.03.04.06h.14l-.02-.04q-.04-.08-.12-.05z"/><path id="Vector_251" fill="#102C53" d="M17.92 21.95h.07l-.02-.09.08-.02c-.05-.01-.14-.07-.16-.07z"/><path id="Vector_252" fill="#102C53" d="M18.12 21.95h.06l-.04-.06z"/><path id="Vector_253" fill="#102C53" d="M21.13 11.34c-.07-.29-.08-.34-.12-.37l-.07-.05c-.11-.09-.19-.19-.21-.2l-.03-.01-.1-.02q-.04 0-.08.03h-.01c-.06.08-.03.14-.01.18l.07.14h-.06l-.27-.17h-.01c-.23-.15-.39-.14-.64-.11l-.16.01a2 2 0 0 0-.69.23s-.31.13-.28.19c.03.07.13.2.36.19.22 0 .19-.01.24-.07q.08-.09.15-.01c.04.06.61.6.61.6s.37.2.75.02c.3-.15.54-.14.57-.36l-.02-.22zm-.28.34q-.14.04-.32.15c-.3.2-.64 0-.64 0l-.6-.58q-.04-.07-.13-.07a.2.2 0 0 0-.16.07l-.02.03-.16.01a.3.3 0 0 1-.24-.1l.22-.11s.33-.19.65-.22h.16c.24-.04.37-.05.58.07l.32.2h.01l.11.19.16-.09-.14-.24-.07-.13q-.02-.04 0-.09h.07l.02.02s.11.12.2.19l.05.04.11.34q.02.1.01.18c0 .07-.05.09-.2.15z"/><path id="Vector_254" fill="#102C53" d="M21.85 11.17q.07-.16-.06-.49c-.16-.37-.71-.68-1.06-.84l-.21-.09-.24-.02c-.21.04-.42.2-.53.3-.15.13-.16.69-.16.69v.03c.25-.03.41-.04.64.1h.01l.27.17h.05l-.07-.13a.2.2 0 0 1 .01-.18h.01l.08-.03q.06 0 .1.02l.03.01c.02.01.1.11.21.2l.07.05c.04.03.05.08.12.37l.02.22s.33-.06.47-.13a.4.4 0 0 0 .17-.14l.05-.1zm-.13.04s-.07.09-.13.11c-.08.05-.24.08-.34.11l-.03-.13c-.08-.35-.09-.39-.18-.45l-.04-.03-.18-.16-.03-.04a.4.4 0 0 0-.18-.05h-.03q-.08.01-.13.08a.2.2 0 0 0-.05.18l-.1-.06a1 1 0 0 0-.6-.13c.01-.2.05-.48.12-.54.1-.09.3-.24.49-.28l.19.01c.17.07 1.01.43 1.22.89q.13.32.01.49z"/><path id="Vector_255" fill="#102C53" d="m21.8 11.27.05-.1z"/><path id="Vector_256" fill="#102C53" d="M21.79 10.69q.13.31.06.49.07-.16-.06-.49"/><path id="Vector_257" fill="#102C53" d="M20.5 10.89s-.04-.1.01-.18h.01-.01c-.06.08-.03.14-.01.18l.07.13z"/><path id="Vector_258" fill="#102C53" d="m20.7 10.69-.1-.02q.06 0 .1.02"/><path id="Vector_259" fill="#102C53" d="m20.24 10.85.01.01z"/><path id="Vector_260" fill="#102C53" d="M21.01 10.96a2 2 0 0 0 .14.59l-.02-.22c-.07-.29-.08-.34-.12-.37"/><path id="Vector_261" fill="#102C53" d="M21.62 33.26v-.14l.02-.34-2.83-.93-.03.76 2.84.93v-.14h.01v-.13zm-.08.17-2.64-.9v-.55l2.65.87v.57z"/><path id="Vector_262" fill="#102C53" d="m21.63 33.31-.01-.05.01.13z"/><path id="Vector_263" fill="#102C53" d="m18.09 17.02.04.03h.24l-.2-.07c-.07-.17-.16-.23-.39-.39l-.19-.13q-.06-.04-.06-.1c-.03-.17.2-.45.34-.63a1 1 0 0 0 .18-.26l.03-.13.03-.28q.02-.17.11-.47s-.16.16-.19.46c-.03.4.03.38-.1.51q-.21.2-.22.28s.04.06-.06.08c-.09.02-.49.36-.13.62.37.26.47.31.54.48z"/><path id="Vector_264" fill="#102C53" d="m18.82 13.36.03-.03c.19-.4.57-.32.58-.32h.04l-.02.01c-.17.07-.39.49-.43.76s.1.43.2.55l.03.05c.09.12.18.33.17.45-.01.17.04.49.16.76l.08.24c.05.21.05.34.03.52-.04.26-.15.63-.26.74h.11v-.04q.02-.08.1-.07l.12-1.18-.01-.03-.08-.23a2 2 0 0 1-.16-.71 1 1 0 0 0-.18-.51l-.09-.12-.12-.24v-.18q.05-.26.2-.49.1-.15.17-.19l.1-.04c.15-.07.42-.17.87-.06l.26.22.08.04s.09-.03.13.01l.02.07.11.07q.15.16.13.23l.01.03.02.03.06.04v-.04a.6.6 0 0 0-.2-.33l-.28-.2-.05-.03-.3-.24q-.17-.04-.32-.05.2-.06.27-.06c.07.01.29.07.36.18l.04.03c.11.05.24.15.25.2q.05.13.17.16c.09.05.14.07.12.2q0 .05.04.09c.03.03.13.1.13.17q0 .06.07.09s.12.05.17.22v.04c.03.06.05.16.05.2 0 .03.05.27.11.37q.02.05.01.1-.01.08.05.14c.03.02.12.09.15.13v-.01l.01-.11q0-.04-.06-.1l-.16-.14v-.01c0-.03.02-.11-.03-.2l-.03-.08-.07-.27-.01-.08c-.06-.24-.26-.2-.27-.32 0-.14-.18-.38-.18-.38.04-.3-.25-.24-.29-.37s-.28-.15-.28-.15c-.11-.18-.28-.17-.28-.17a1 1 0 0 0-.37.04c-.08.03-.29.01-.29.01l-.37.16s-.44-.19-.67.29c0 0-.41.25-.41.52 0 0-.19.31-.14.72.11-.39.25-.8.25-.8.09-.18.31-.33.31-.33z"/><path id="Vector_265" fill="#102C53" d="M21.57 15.31q.08-.09.05-.27l-.01-.1v-.1c.02.08.06.3.01.41q0 .03-.02.05z"/><path id="Vector_266" fill="#102C53" d="M21.56 14.67v-.02l.01.08v-.05z"/><path id="Vector_267" fill="#102C53" d="m21.47 14.24.01.05v.03l.02.09.02.14v.4l.01.1q.03.18-.05.27-.05.05-.05.23l.17-.11c.11-.1.07-.33 0-.57l-.02-.06c0-.03 0-.1-.05-.41l-.03-.28-.01-.03-.09.14z"/><path id="Vector_268" fill="#102C53" d="M22.11 15.2s0 .08.02.11c0 0 .14.14.09.28q-.03.14 0 .26c.02.11.03.18-.09.28 0 0-.16.15-.29.2l-.22.04-.05-.09q.04.03.01.08v.01h.02s.17.05.25.09h.03v-.03q.02-.05.21-.2l.07-.06c.25-.19.05-.37.11-.57q.02-.1-.01-.2c-.04-.1-.11-.18-.11-.18l.02-.09q-.03.01-.04.04z"/><path id="Vector_269" fill="#102C53" d="m21.52 16.25.05.03-.01-.03q0-.02-.03-.03z"/><path id="Vector_270" fill="#102C53" d="m19.43 17.1-.04.03c-.09.04-.32.04-.55.01h.02c.14.1.58.04.58.04l.12-.09h-.11z"/><path id="Vector_271" fill="#102C53" d="m18.6 17.11-.22-.05h-.24l-.04-.04c.05.12.31.09.52.09z"/><path id="Vector_272" fill="#102C53" d="M22.24 15.42c-.04-.1-.1-.17-.1-.18s.07.08.11.18z"/><path id="Vector_273" fill="#102C53" d="M21.86 16.48h-.03z"/><path id="Vector_274" fill="#102C53" d="M21.94 14.76s.02-.11-.02-.2c.04.08.02.16.03.2z"/><path id="Vector_275" fill="#102C53" d="m22.15 15.13.01-.11z"/><path id="Vector_277" fill="#102C53" d="m21.22 13.73-.02-.03q0 .02.02.03"/><path id="Vector_278" fill="#102C53" d="m21.34 16.23.03.03-.02-.02z"/><path id="Vector_279" fill="#102C53" d="M19.65 16.99s.04-.06.04-.09c0-.13.02-.41.09-.53.05-.08.02-.33-.04-.56l-.12 1.18z"/><path id="Vector_280" fill="#102C53" d="M21.58 14.84c.01.08.06.3.01.42.05-.12 0-.33-.01-.41z"/><path id="Vector_281" fill="#102C53" d="m19.74 15.78.01.03z"/><path id="Vector_282" fill="#102C53" d="m19.49 13.12.1-.04zq-.08.03-.17.19.1-.15.17-.19"/><path id="Vector_283" fill="#102C53" d="M21.51 16.25v-.03l-.03-.03c-.07-.07-.19-.19-.18-.52l.21-.11q0-.17.05-.23-.17.14-.36.23l-.03.02.04.07v.27c.01.22.07.24.09.27l.04.05.02.02.04.04q.03-.06.1-.05z"/><path id="Vector_285" fill="#102C53" d="m21.55 14.65.01.08z"/><path id="Vector_286" fill="#102C53" d="M15.59 10.75a.3.3 0 0 0-.18-.04l-.14.01.28.11c.16.09.39.03.49-.07l.03-.03c-.21.04-.43.05-.49.01z"/><path id="Vector_287" fill="#102C53" d="M19.14 9.6s.24-.32-.28-.48c0 0-.05-.35-.49-.47 0 0-.2-.19-.34-.08 0 0-.17-.2-.65-.24 0 0-.04-.28-.72-.16 0 0-.96-.11-1.23.03l-.24.31s-.52-.08-.53.18c0 0-.41-.02-.39.28 0 .01-.49.3-.4.55l-.02.03q.16.08.31.19.33.26.47.57l.04-.02.06.04-.02-.07a2 2 0 0 0-.5-.6l-.26-.17v-.02c-.07-.16.14-.33.19-.36l.14-.03c.05-.01.07-.09.07-.14 0-.13.44-.3.85-.36q.07-.02.07-.09 0-.1.09-.18c.26-.21 1.01-.14 1.27-.09h.03c.64-.1 1.3.39 1.31.39q.04.03.07.02c.46-.08.72.49.72.49l.06.05c.32.1.3.51.22.83v.05c-.02.05-.03.11-.21.14q-.08.01-.24-.05l-.19-.07c-.09-.03-.16-.05-.34-.17l-.32-.24s.07.11.16.14c0 0-.04.04 0 .08l.04.03.06.02c.11.03.34.2.55.3q.16.07.28.06c.26-.04.27-.16.28-.22.01-.07.3-.21 0-.49z"/><path id="Vector_288" fill="#102C53" d="M17.69 9.63s-.07-.02-.1 0a.1.1 0 0 0-.05.09c0 .08 0 .28-.07.35-.1.1-.12.1-.2.09q-.12 0-.31.17l-.14.09-.1.07c-.12.08-.26.19-.48.2l-.11.02c.07 0 .13.07.13.07.16.12.3-.18.37-.18q.09 0 .24-.1c.12-.07.31-.26.39-.25.09 0 .14 0 .27-.12s.1-.43.1-.43l.09-.05z"/><path id="Vector_289" fill="#102C53" d="M15.86 13.98c-.07.03-.36.14-.43.22-.08.11-.2.34-.19.62 0 .28-.07.55.22.67q.1.04.2.11c.3.17.7.41 1.12.13 0 0 .27-.13.18-.56 0 0 .31-.18.17-.41l-.14-.22.45-.07s.24-.09.2-.2l-.47-.08-.52-.07-.18.03-.3-.08-.3-.08zm.57.23s.05.09.05.12c-.09.05-.24.09-.28.07l-.1-.05s-.1 0-.12.04q-.03.08.04.12l.1.05c.16.09.45-.07.5-.1q.11-.1.01-.26h.03c.09 0 .46.07.51.07l.34.06-.08.04-.45.07-.07.05v.09l.14.23s.03.07.02.1a.3.3 0 0 1-.16.18.1.1 0 0 0-.04.1c.07.34-.13.45-.15.46-.37.25-.72.04-1-.12h-.03l-.21-.12c-.18-.07-.18-.19-.17-.43v-.16c0-.26.1-.48.16-.56.03-.05.22-.14.37-.2l.55.15z"/><path id="Vector_290" fill="#102C53" d="M15.96 26.65a5 5 0 0 0-.42-1.08 2.3 2.3 0 0 0 1.41-.84q.48-.09.76-.4l.02-.11.02-.08q-.07.11-.18.21l-.16.11-.14.07-.11.05-.08.02-.14.03-.03-.02a2 2 0 0 1-.49.53q-.6.34-1 .34v.05a7 7 0 0 0 .46 1.2l.02.09v.02l.01.04.02.07.02.06.09.28.06-.05q-.14-.48-.16-.61z"/><path id="Vector_291" fill="#102C53" d="m17.94 23.8.03-.11z"/><path id="Vector_292" fill="#102C53" d="m18.01 23.62-.03.08-.03.11.05-.19z"/><path id="Vector_293" fill="#102C53" d="m14.13 13.87-.57.28.03.06s-.09.32.02.49c0 0 .29.82 1.17.88l.89.04v-.03q-.1-.07-.19-.11c-.3-.11-.22-.39-.22-.67s.11-.51.19-.62c.09-.16.36-.22.43-.22h.01l.3.08V14c-.04-.2-.6-.6-.6-.6l-.14-.03c-.46.2-1.31.5-1.31.5zm1.35-.42.03.04c.16.11.39.3.51.43l-.14-.03h-.05c-.09.03-.4.15-.49.26s-.21.37-.2.68v.15c0 .2-.01.41.17.55l-.55-.03c-.8-.06-1.08-.78-1.1-.83-.06-.1-.03-.34 0-.47l.47-.24s.86-.3 1.33-.5z"/><path id="Vector_294" fill="#102C53" d="M15.44 14.2c.07-.09.35-.2.43-.22-.07 0-.33.06-.43.22"/><path id="Vector_295" fill="#102C53" d="m17.56 10.78-.04.07s-.02.1.02.13q.08.04.13-.03l.05-.07.17.11.05.01q.04 0 .07-.04.04-.07-.03-.13l-.47-.32s-.1-.01-.14.03q-.04.07.03.13z"/><path id="Vector_296" fill="#102C53" d="M14.71 11.48q-.11.35-.31.62l.09.04 1.38-.36.08.05.54.29s.36.2.49.18c.14-.02.14-.09.14-.15s.09-.16.14-.16c.05-.01.14-.14.14-.14s.18 0 .24-.05c.05-.03.14-.14.15-.14s.21.24.28-.07c.06-.3.34-.96.39-1.1l.11-.2v-.03c-.2-.1-.43-.27-.54-.3l-.06-.02q-.03 0-.04-.03c-.07-.03-.05-.08-.05-.08-.12-.03-.1.07-.16-.09h-.07s.03.3-.1.42c-.14.13-.18.12-.27.12-.08 0-.27.18-.39.25l-.24.1c-.07 0-.21.3-.37.18 0 0-.05-.07-.13-.07h-.04l-.03.03c-.1.1-.34.16-.49.07l-.28-.11h-.03l-.17.01a1 1 0 0 0-.32-.37v-.01l-.06-.04-.04.02c.18.37.19.78.08 1.14zm.14-.76.05.09c.05.14.22.12.37.11h.24c.18.1.68 0 .76-.02a1 1 0 0 0 .56-.24l.09-.06.16-.11.18-.13c.12 0 .2 0 .34-.14q.11-.14.13-.31l.24.18c.21.14.3.16.4.19l.07.02-.07.16-.07.16c-.1.27-.28.71-.33.96l-.03.08q-.04-.01-.08-.05c-.03-.04-.11-.04-.15 0l-.13.13-.14.03-.16-.17s-.09-.04-.13 0q-.06.05 0 .14l.13.14-.03.05c-.09.02-.2.15-.21.24q0 .04-.06.06c-.06.01-.27-.07-.43-.16l-.62-.34h-.07l-1.29.34q.16-.26.24-.51.12-.4.05-.79z"/><path id="Vector_297" fill="#102C53" d="M17.64 9.71h.07c.06.18.04.07.16.11 0 0-.02.05.05.08-.05-.04 0-.08 0-.08a.3.3 0 0 1-.16-.14l-.03-.02z"/><path id="Vector_298" fill="#102C53" d="M17.81 23.86q.03-.08.11-.07h.01l.04-.1q.05-.28.11-.46l.03-.17s-.05-.22-.05-.37l-.02-.09-.03-.14H18q-.06 0-.09-.06l.04.18.08.34c-.01.24-.14 1.37-.96 1.59.27-.57.41-1.34-.43-2.39q-.05-.07-.14-.02-.07.06-.01.14c.84 1.06.65 1.78.35 2.33-.22.34-.74.74-1.43.84-.53.02-.78-.28-.79-.3l-.05-.03q.24-.5.29-.73c.19-.03.68-.16.7-.49v-.08c.05-.43-.04-.87-1.61-1.47l-.07.06.11.05.1.04.2.08a4 4 0 0 1 .83.47q.17.14.26.27l.03.06c.11.2.05.37.05.51l-.02.08-.09.11c-.2.17-.58.22-.58.22 0 .18-.21.62-.34.88l.11.02s.28.37.88.33q.4 0 1-.34s.27-.19.49-.53l.03.02.14-.03.08-.02.11-.05.14-.07.16-.11q.1-.1.18-.21l.05-.28z"/><path id="Vector_299" fill="#102C53" d="m15.21 19.67-.04.03-.06.03c-.3.09-.55.03-.55.03s-.15-.09-.2-.09-.11.07-.16.09c-.04.03-.21.07-.27.16-.01.03-.09.22-.1.29l-.04.2v.05l-.02.16c0 .1 0 .23-.07.27 0 0-.18.13-.28.14-.1 0-.28.02-.37-.05l-.22-.22-.07-.07-.06-.06-.38.17v.02l-.01.08.37-.16.03.02.14.14.16.15c.12.09.3.08.43.07.12 0 .3-.13.32-.15.11-.05.11-.2.12-.3v-.04c0-.09.05-.32.06-.39l.09-.26.18-.09.07-.03.06-.04.05-.04.18.08c.01 0 .28.07.6-.03a.4.4 0 0 0 .16-.1c.25.07 1 .29 1.35.54l.02-.03h.01v.03l.09.09.16.22-.11-.3-.1-.06h.01v-.02l-.02-.01-.19-.11-.2-.09c-.47-.22-1.06-.37-1.06-.37s0 .05-.02.07z"/><path id="Vector_300" fill="#102C53" d="m13.19 22.92.14-.16.14-.14.13-.11.07-.05.05-.05q-.04-.05 0-.11c-.11.07-.61.44-.87.99q-.24.5-.37.97a14 14 0 0 1-1.72-1.62l-.21-.22q-.06-.06-.13 0-.06.05 0 .14l.13.14-.53.3q-.1-.05-.31-.21c-.08-.07-.09-.14-.08-.38v-.4c-.02-.41.74-.61 1.01-.64.23-.03 1.13-.25 1.18-.26l.39-.17s-.06-.02-.07-.05l-.34.14s-.93.23-1.16.25c-.23.03-1.12.22-1.09.74.02.51-.06.7.11.84l.14.1.11.07.03.02h.02l.03.02.02.01.01.03c.32-.21.68-.39.68-.39h.01c.42.43 1.35 1.39 1.79 1.65l.07.02q.17-.61.39-1.06.11-.22.25-.4z"/><path id="Vector_301" fill="#102C53" d="m17.86 21.96.02.03v-.03z"/><path id="Vector_302" fill="#102C53" d="m17.68 21.5-.04-.05a1 1 0 0 1-.3-.31v-.03q-.04-.04-.03-.07v-.02l-.01-.03-.13-.09c.23.34.45.66.55.85l.03-.18-.05-.08z"/><path id="Vector_303" fill="#102C53" d="m16.5 20.05-.2-.09z"/><path id="Vector_304" fill="#102C53" d="m18.02 23.57.02-.07.04-.27-.11.46q0-.04.03-.08z"/><path id="Vector_305" fill="#102C53" d="M18.06 22.69c0 .15.05.36.05.37v-.08z"/><path id="Vector_306" fill="#102C53" d="m16.93 20.59.22.32q.08.04.13.09l-.02-.03c-.07-.07-.11-.09-.14-.18a1 1 0 0 0-.31-.51l.11.3z"/><path id="Vector_307" fill="#102C53" d="m17.77 21.87.09.09h.01l-.05-.15-.09-.22-.03.18.05.09v.01z"/><path id="Vector_308" fill="#102C53" d="m17.64 21.45-.3-.3q.03.13.3.3"/><path id="Vector_309" fill="#102C53" d="M17.9 21.95h-.03v.04l.03.03z"/><path id="Vector_310" fill="#102C53" d="M17.87 21.95h.02l-.02-.07h-.01l-.04-.07z"/><path id="Vector_311" fill="#102C53" d="m18.12 23.06-.03.17v-.04z"/><path id="Vector_312" fill="#102C53" d="m18.07 23.34.03-.14.03-.22v.08h-.01l-.02.14v.04l-.04.27.03-.16z"/><path id="Vector_313" fill="#102C53" d="m15.36 24.04.09-.11.02-.08c0-.14.06-.31-.05-.51l-.03-.06a1 1 0 0 0-.26-.27l-.09-.07a4 4 0 0 0-.74-.4l-.2-.08-.1-.04-.11-.04-.02.02q-.02.03-.07.03l-.06-.02-.01-.01-.05.04-.07.05-.13.11-.14.14-.14.16q-.14.18-.25.4-.22.45-.39 1.06-.16.6-.15 1.37.01.62.05 1.22c.05.62.16 1.15.4 1.35 0 0 .29.24.32.28.03.03.3.2.32.25.03.06.1.26.07.3-.04.04-.2.12-.21.16-.02.02-.07.18.03.24 0 0 .05.03.1-.03.05-.07.14-.09.18-.1.05-.01.32-.12.32-.24v-.21l.44.91s.08.04.14.04l.03-.01.03-.02q.05-.04.04-.11l-.1-.33-.11-.39-.09-.24-.09-.26h.01l.43.58.22.38s.11.13.19.1.16-.07.09-.22l-.19-.46s-.2-.38-.37-.51l.4.15.54.34s.08 0 .11-.05l.01-.03q-.01-.06-.05-.13l-.45-.54s-.18-.14-.27-.18c0 0-.09-.07-.11-.12-.01-.05-.24-.26-.28-.3a2 2 0 0 0-.51-.28c-.12-.03-.44-.07-.41-.25.03-.19.41-1.09.41-1.09l.28-.56.11-.22c.13-.26.33-.7.34-.88 0 0 .39-.05.58-.22zm-.68.22q-.02.2-.33.85l-.11.22-.28.57c-.04.09-.39.92-.41 1.11-.03.25.28.32.43.34h.05c.09.03.43.24.48.29a3 3 0 0 1 .4.42c.07.03.2.13.24.15l.45.55.03.05-.53-.33-.4-.15s-.09 0-.12.04q-.04.07.02.11c.14.11.3.39.34.48l.19.46c.03.07.03.07-.03.1q-.05-.01-.08-.06l-.24-.39-.43-.57c-.03-.06-.16-.04-.18.03v.04l.09.27.09.23.11.39.11.33-.03.03-.05-.01-.42-.88s-.05-.05-.09-.05q-.08 0-.09.09v.2s-.2.14-.26.15a.4.4 0 0 0-.24.14v-.09l.08-.05.12-.09c.02-.02.09-.09-.04-.39-.03-.06-.1-.11-.28-.24l-.07-.05-.33-.28q-.27-.22-.36-1.26v-.05q-.04-.5-.05-1.03v-.16a5 5 0 0 1 .53-2.38c.23-.47.66-.82.79-.91 1.66.62 1.61 1.03 1.58 1.31l-.01.09c-.01.2-.45.31-.61.33a.1.1 0 0 0-.08.08z"/><path id="Vector_314" fill="#102C53" d="m14 22.42-.11-.05z"/><path id="Vector_315" fill="#102C53" d="m13.67 22.44.05-.04z"/><path id="Vector_316" fill="#102C53" d="m14.5 12.13-.09-.04a2 2 0 0 1-.5.51c-.2.1-.41.15-.51.45s-.26 1.01-.59 1.31c0 0-.05.02-.02.16h.05l.72-.37.57-.28s.85-.3 1.31-.5q.26-.11.29-.18c.03-.12.03-.48.03-.48l-.03-.02c.28-.34.22-.86.22-.86h.01l-.08-.06zm1.16.49-.15.14-.47.31s-.05.09-.03.13q.06.08.13.03l.47-.31.06-.05q0 .18-.02.28 0 .02-.24.13c-.46.2-1.31.5-1.32.51l-1.16.58c.25-.27.39-.76.49-1.08l.06-.2c.07-.22.2-.28.37-.36l.09-.04c.14-.07.33-.26.49-.48q.03.03.08.02l1.34-.34c0 .11.01.49-.2.75z"/><path id="Vector_317" fill="#102C53" d="M10.22 10.19c-.64.7-.98 1.2-.53 1.77s.94 1.06 1.41.88h.06l-.02.2c0 .14.02.9-.06 1.48l-.02.28c-.02.4.05.62.05.62a5 5 0 0 0 .44 1.71l.03.05h.02s.09.05.08.1v.07l.16.24c.09.18.62.89.62.89s.34.89.34.97-.19.32-.24.63q-.03.37.11.53l.06.06.07.07.22.22c.09.07.27.06.37.05a1 1 0 0 0 .28-.14c.07-.04.07-.17.07-.27l.02-.16v-.05l.04-.2c.01-.07.09-.26.1-.29.06-.08.23-.13.27-.16s.11-.09.16-.09.2.09.2.09.25.07.55-.03l.06-.03.04-.03q.04-.03.02-.07c-.02-.07-.14-.12-.2-.14a2 2 0 0 1-.47-.25c-.08-.09-.3-.16-.42-.17-.11 0-.39-.57-.54-1.03a6 6 0 0 1-.24-1.64c0-.6-.4-1.4-.52-1.69l-.06-.16c-.03-.14.02-.16.02-.16.33-.29.49-.99.59-1.31.11-.3.31-.35.51-.45.12-.06.32-.24.5-.51q.2-.27.31-.62a1.6 1.6 0 0 0-.55-1.71q-.15-.11-.31-.19a2.4 2.4 0 0 0-.94-.23c-.38.04-2.12.22-2.69.85zm2.69-.74.03-.01a2 2 0 0 1 1.15.4q.3.24.45.54c.16.33.19.72.07 1.08q-.1.3-.29.59c-.18.25-.37.43-.47.47l-.09.04c-.18.08-.37.17-.47.47l-.06.21c-.1.33-.25.83-.5 1.06-.03.02-.09.09-.05.26l.06.17.07.16c.16.34.45.99.45 1.49 0 .69.13 1.28.25 1.67.07.22.39 1.08.62 1.1.11 0 .3.07.35.14.09.1.39.23.51.28l.12.07-.05.02q-.17.05-.3.05-.16 0-.18-.02-.17-.1-.25-.09-.09.02-.16.08l-.04.03-.04.01a1 1 0 0 0-.26.16l-.02.04-.01.03a2 2 0 0 0-.15.67v.04s0 .13-.03.16l-.24.12c-.09 0-.23.02-.29-.03l-.14-.14-.16-.16-.05-.05a.6.6 0 0 1-.1-.46q.06-.29.17-.47.06-.1.07-.17c0-.02 0-.09-.34-1.01l-.01-.02c-.14-.2-.54-.74-.61-.89l-.07-.11c-.11-.17-.33-.49-.49-1.09q-.11-.42-.16-.95s-.07-.2-.05-.58l.02-.28c.06-.44.06-.99.06-1.29v-.2l.02-.2c.02-.16.1-.72.24-1.09.16-.44.8-1.51.81-1.52q.04-.08-.03-.13l-.05-.01a.1.1 0 0 0-.08.05c-.03.04-.66 1.1-.83 1.55-.13.34-.21.82-.24 1.05h-.02c-.43.16-.89-.34-1.3-.85-.39-.49-.15-.91.53-1.65.57-.62 2.41-.78 2.62-.8z"/><path id="Vector_318" fill="#102C53" d="m11.69 17.53.06.09c.08.18.55.8.62.89.16.41.32.87.33.93l-.05.1c-.06.12-.16.3-.19.52q-.03.35.07.51l-.28.11.03.09.38-.16a.7.7 0 0 1-.11-.54c.05-.31.23-.55.24-.63 0-.09-.34-.97-.34-.97s-.53-.72-.62-.89q-.03-.07-.16-.24v.16z"/><path id="Vector_319" fill="#102C53" d="M9.98 23.06h-.02l-.03-.02-.02-.01-.03-.01-.05-.03-.05-.04-.14-.1c-.18-.14-.09-.32-.11-.84-.03-.51.86-.71 1.09-.74a16 16 0 0 0 1.16-.25l.34-.15-.02-.09-.35.15s-.93.23-1.14.26c-.26.03-1.2.24-1.18.83v.39c0 .24 0 .4.16.52q.14.12.26.18-.21.14-.3.26c-.17.2-.38.48-.47.76a3 3 0 0 0-.7-.39l-.16-.03-.22-.03v-.03a2.7 2.7 0 0 1-.06-1.61v-.03c.09-.43.2-.97.2-1.2q0-.23-.09-.78c-.07-.56-.18-1.33-.18-1.91 0-.86.49-1.43.55-1.49 1.29.07 2.5-.09 2.8-.13q.15.5.3.77l.07-.05-.03-.06q-.15-.27-.28-.76h-.01s-1.41.22-2.92.14v.03s-.58.6-.58 1.56.27 2.37.26 2.69c0 .2-.15.83-.26 1.32l-.04.2-.03.17-.03.23.03.16.05.3q.04.27.24.55v.05l.39.05c.09 0 .72.43.72.43h.05c.05-.26.24-.56.47-.83l.08-.08.15-.12.17-.11v-.02H10z"/><path id="Vector_320" fill="#102C53" d="M9.88 23.01q-.01-.02-.05-.03z"/><path id="Vector_321" fill="#102C53" d="M9.9 23.02 9.87 23z"/><path id="Vector_322" fill="#102C53" d="M9.93 23.03h-.02z"/><path id="Vector_323" fill="#102C53" d="m9.88 23-.11-.07.05.04q.03 0 .05.03z"/><path id="Vector_324" fill="#102C53" d="m9.98 23.06-.02-.01z"/><path id="Vector_325" fill="#102C53" d="m9.95 23.05-.03-.02z"/><path id="Vector_326" fill="#102C53" d="m11.58 17.17-.03-.05z"/><path id="Vector_327" fill="#102C53" d="M7.18 16.36q.57.1 1.16.14c1.51.09 2.92-.13 2.92-.13h.01a6 6 0 0 1-.16-.95s-.07-.22-.05-.62h-.05l-.11.08-.08.06-.21.15-.26.19-.46.3c-.6.39-1.1-.15-1.4-.37-.2-.14-.55-.09-.93-.03l-.6.11h-.21l-.1-.03-.09-.03-.18-.11-.24-.2c-.05.04-.39.37.14 1.17l.3.11q.3.09.62.15zm-1.07-1.29q.43.37.85.32l.45-.08c.4-.07.81-.16 1.01-.02l.13.1c.3.24.81.65 1.38.27.43-.28.82-.56 1.01-.7l.02-.01c0 .31.05.48.06.48q.04.46.14.87c-.32.04-1.54.19-2.81.12a8 8 0 0 1-1.76-.29l-.27-.09c-.35-.55-.27-.84-.2-.96z"/><path id="Vector_328" fill="#102C53" d="m6.54 15.23.09.03.1.03h.21l.6-.1c.38-.07.72-.11.93.03.3.22.8.76 1.4.37l.46-.3.26-.19.29-.21-.03-.03-.84-.28c-.14-.04-.95-.37-1.12-.39-.17 0-.59-.18-.78-.3-.19-.13-.58-.72-.57-.87 0-.11.06-.76.15-1.24h-.05s-.69.15-1.37 1.36c0 0-.43.52-.58.66-.15.13-.04.68.09.8.05.05.17.19.32.33q.1.1.24.2.08.06.18.1zm-.59-.6-.1-.1c-.06-.05-.14-.29-.14-.49q0-.16.04-.18c.16-.14.57-.64.6-.68.5-.91 1.01-1.2 1.22-1.29-.07.49-.12 1.04-.13 1.12 0 .19.41.8.62.95.2.13.63.3.83.32.09 0 .51.16.76.25l.33.12.72.24-.89.61c-.46.3-.87-.02-1.16-.26l-.14-.11a1 1 0 0 0-.43-.11q-.32.01-.72.1l-.44.07q-.36.05-.76-.33-.14-.13-.22-.24z"/><path id="Vector_329" fill="#102C53" d="m10.89 14.89-.08.05z"/><path id="Vector_330" fill="#102C53" d="M6.75 15.29h.2l.6-.11-.6.1z"/><path id="Vector_331" fill="#102C53" d="M8.77 24.95c.08 0 .41 0 .68.03v-.02c-.11-.08-.36-.32-.34-.61l.02-.11h-.05s-.62-.43-.72-.43l-.39-.05-.35-.04h-.19c-.22.05-.86.42-.9.8s-.35 1.46.64 1.44c0 0 .38-.21.55-.37l.06-.06c.13-.17.85-.58.99-.57zm-1.07.52-.05.05c-.14.13-.44.3-.51.34q-.31 0-.46-.16c-.2-.24-.13-.7-.08-1l.03-.18c.03-.32.6-.66.82-.71h.06q.09-.01.45.04.12 0 .22.03l.17.03c.07.01.4.22.67.41v.03c-.01.22.1.41.21.53h-.46c-.19 0-.93.44-1.06.61z"/><path id="Vector_332" fill="#102C53" d="m14.52 31.39-.41-.04-.22-.07c-.21-.07-2.12-.83-2.99-1.25-.87-.41-1.51-1.14-2.25-1.77l-.05-.04-.03.03s-.16.14-.18.33c0 .19-.01.55-.16.89-.16.33-.47 1.1-.44 1.26.03.18.44.89.45.93 0 .03.11.15.14.16l.24.03c.03 0 .16.02.2 0 .05 0 .16-.04.17-.09 0-.06 0-.14.03-.16.05-.02.26-.28.18-.3l-.28-.09c-.07-.03-.16-.03-.2-.11-.03-.09-.07-.14-.04-.23s.14-.18.2-.22c.07-.05.87-.61 1-.59s.43.09.56.21 1.23 1.05 1.47 1.16 1.19.68 1.67.73c.47.05 1.31.23 1.67.33s1.13.24 1.47-.14c.34-.39.49-.41.51-.66.03-.24.14-.93-.05-1.27-.2-.34-.39-.58-.39-.58h-.07l-.09.22c-.32.67-.41 1.41-2.1 1.35zm2.24-1.43q.12.15.33.49c.16.26.09.8.06 1.09l-.02.13c0 .12-.05.16-.19.3l-.3.3c-.32.37-1.13.18-1.37.12-.35-.1-1.2-.28-1.68-.33-.34-.03-.98-.38-1.36-.58l-.28-.15c-.22-.09-1.31-1-1.44-1.14-.13-.12-.41-.2-.62-.24h-.03c-.07 0-.25.06-1.02.6h-.01a1 1 0 0 0-.24.28c-.04.11 0 .2.03.26l.02.04q.1.15.2.15l.05.01.22.07-.12.15c-.09.04-.09.14-.09.2l-.09.05h-.19l-.18-.02-.09-.09c0-.03 0-.04-.11-.23s-.32-.6-.33-.7c-.02-.11.22-.76.43-1.21.15-.32.16-.66.18-.86v-.06c0-.11.08-.2.11-.24l.54.48c.52.48 1.06.97 1.71 1.29a56 56 0 0 0 3.22 1.33c.49.2 1.07.47 1.16.55q.06.06.13 0 .06-.06 0-.13a3 3 0 0 0-.72-.38h.08c1.37 0 1.63-.59 1.87-1.16l.11-.24.05-.13z"/><path id="Vector_333" fill="#102C53" d="M8.12 13.89c.19.12.61.29.78.3s.98.34 1.12.39l.84.28.03.03.11-.08h.05l.02-.28c.08-.58.05-1.34.06-1.48l.02-.2h-.06c-.47.17-.95-.32-1.41-.89s-.11-1.06.53-1.77c.57-.63 2.31-.8 2.69-.83l-.09-.01s-1.16-.13-1.77 0c-.61.14-1.39.29-1.68.47s-.59.76-.86.92c-.26.16-.64.3-.76.75l-.05.29c-.09.47-.14 1.12-.15 1.24 0 .14.39.74.57.87zm-.34-2.1.06-.28c.09-.34.36-.49.6-.63l.12-.06q.2-.15.43-.47c.14-.18.28-.37.42-.46.24-.15.85-.28 1.39-.4l.26-.05q.32-.07.74-.06h.17c-.65.11-1.45.34-1.82.74-.62.67-1.05 1.24-.53 1.89.43.53.93 1.06 1.43.93v.3c0 .29 0 .83-.06 1.26l-.02.21h-.01l-.05.04-.85-.28-.32-.11c-.39-.15-.7-.26-.82-.27-.14 0-.55-.17-.73-.28a2 2 0 0 1-.53-.78c0-.13.06-.77.14-1.23z"/><path id="Vector_334" fill="#102C53" d="m15.95 26.97-.02-.07-.01-.04v-.02l-.02-.09-.01-.09a7 7 0 0 0-.44-1.11v-.05c-.6.03-.89-.33-.89-.33l-.11-.02-.11.22-.28.56s-.38.9-.41 1.09c-.03.18.29.22.41.25s.47.25.51.28c.03.04.26.25.28.3s.11.12.11.12c.09.04.27.18.27.18l.45.54q.05.06.05.13v.03l-.11.05-.54-.34-.4-.15c.18.14.37.51.37.51l.19.46c.06.16-.03.19-.09.22-.07.03-.19-.1-.19-.1l-.22-.38-.43-.57.08.25.09.24.11.39.1.33q.01.08-.04.11l-.03.03h-.03l-.14-.04-.44-.91v.21c0 .11-.27.22-.32.24a.2.2 0 0 0-.18.1c-.05.07-.1.03-.1.03-.11-.06-.05-.22-.03-.24.01-.03.17-.11.21-.16.03-.04-.04-.24-.07-.3-.02-.05-.28-.22-.32-.25l-.32-.28c-.24-.2-.34-.73-.4-1.35-.32.3-.8.38-1.33.38q-.54-.01-1.12-.05a3 3 0 0 1-1.82-.78l-.02.02s-.24 1.04.44 1.68l.05.04c.74.63 1.39 1.35 2.25 1.77a50 50 0 0 0 3.21 1.33l.41.03c1.69.06 1.77-.68 2.1-1.35q.07-.12.09-.24l.02-.09c.09-.47-.15-.76-.19-.87l-.24-.72-.2-.63q-.04 0-.07-.03a.1.1 0 0 1 .01-.14h.01l-.09-.3-.02-.06zm.26 1.19.24.72.05.1c.07.14.21.38.14.72l-.02.09q-.03.11-.09.22l-.11.25c-.26.59-.48 1.09-1.89 1.04l-.41-.04h-.01l-.19-.07c-.2-.07-2.12-.83-2.98-1.24a7 7 0 0 1-1.66-1.25l-.57-.51-.04-.04c-.5-.46-.47-1.17-.44-1.46a3 3 0 0 0 2.07.72c.76.05 1.56.11 2.08-.25.07.68.2 1.06.42 1.24 0 0 .29.24.32.28l.09.06.21.16.07.2-.07.05-.14.11a.4.4 0 0 0-.03.24q.02.09.09.11c.05.04.15.06.23-.04q.07-.07.14-.07s.26-.08.36-.22l.3.64.05.04c.08.05.2.08.28.01.04-.03.13-.11.08-.23l-.09-.33-.09-.32.3.48s.17.18.29.12c.06-.02.25-.09.16-.34l-.2-.47-.16-.26.6.37.06.01c.03 0 .12-.02.18-.09.07-.08.02-.2-.05-.28l-.45-.56c-.02-.01-.19-.14-.27-.17l-.07-.08c-.01-.03-.05-.09-.3-.33a2 2 0 0 0-.55-.31h-.05c-.09-.03-.3-.07-.29-.15.02-.12.25-.7.4-1.06l.28-.56.08-.16c.07.08.36.35.86.35.11.23.4.85.43 1.08.03.18.25.91.43 1.48z"/><path id="Vector_335" fill="#102C53" d="M14.57 29.91h.03l.03-.03-.03.02z"/><path id="Vector_336" fill="#102C53" d="M7.46 23.71h.14q.12-.02.16-.07l-.24-.02h-.11c-.3.03-.57-.02-.62-.03l-.2-.18c-.18-.2-.38-.2-.64-.22h-.16l-.05-.01c-.02-.03.06-.21.19-.36l.14-.22q.29-.57.35-1.34-.06.46-.28.87l-.21.41-.25.64s.1.04.2.05c.35.02.47.08.64.28s.6.34.89.2z"/><path id="Vector_337" fill="#102C53" d="m6.43 19.2-.02-.79c-.01-1.36.8-1.93.81-1.94q.44.08.95.11c-.18.23-.51.76-.51 1.51 0 .59.11 1.37.18 1.93.05.34.09.64.09.76 0 .19-.08.67-.19 1.17v.03c-.07.31-.22.95.04 1.65.06-.07.02-.18.02-.18l-.05-.3-.05-.3-.04-.2.04-.18.03-.17.04-.2c.11-.49.26-1.12.26-1.32 0-.32-.26-1.74-.26-2.69s.58-1.56.58-1.56v-.03a8 8 0 0 1-1.16-.14v.03s-.87.78-.85 2.22c0 .73.12 1.43.12 2.08q.02-.74-.01-1.49z"/><path id="Vector_338" fill="#102C53" d="M11.12 27.34c.53 0 1.01-.07 1.33-.38-.03-.39-.04-.83-.05-1.22q-.01-.77.15-1.37l-.07-.02a14 14 0 0 1-1.79-1.66h-.01s-.36.19-.68.4l-.17.11-.15.12-.08.08c-.23.26-.42.57-.47.83l-.02.11c-.01.28.24.53.34.61v.02c-.28-.03-.6-.02-.68-.03a3 3 0 0 0-1.05.63h.11s.06.59.27.85l.07.07c.28.28.97.72 1.82.78q.57.04 1.12.05zm-2.94-.96a2 2 0 0 1-.25-.79l-.03-.05a3 3 0 0 1 .86-.49h.14c.14 0 .36 0 .55.02.3.03.34.08.34.08.06.07.11.28.16.43q.07.29.14.34l.66.53.11-.15-.64-.53c-.02-.03-.05-.16-.08-.26a2 2 0 0 0-.19-.49q-.08-.11-.42-.15c-.03-.03-.32-.26-.31-.53l.01-.09q.08-.34.46-.79.1-.13.38-.3c.24-.16.52-.3.62-.35.42.45 1.33 1.37 1.75 1.63q-.15.65-.14 1.31v.16l.05 1.03c-.46.4-1.26.34-2.04.29l-.3-.02a3 3 0 0 1-1.76-.75z"/><path id="Vector_339" fill="#102C53" d="M5.63 23.05c.05-.07.11-.27.16-.34.72-1.01.55-2.77.54-4.1-.01-1.43.85-2.22.85-2.22v-.03l-.62-.15v.03s-.73.89-.76 2.12l-.14 2.11s-.03.22-.23.72v.01l-.01.05-.01.07-.03.09q-.04.18-.14.41l-.22.53c-.05.07-.25.41-.34.52l-.02.03c-.05.05.16.07.16.07.03.12.3.22.46.17s.37.11.39.1l.02-.05c-.11-.05-.04-.14-.04-.14zm-.87-.16-.01-.02c.05-.05.22-.22.28-.34l.13-.26.35-.78c.09-.22.18-.5.17-.62l.21-2.7c.03-1.1.64-1.77.72-1.85l.39.09c-.25.23-.78.85-.76 2l.02.8c.04 1.18.08 2.52-.35 3.31l-.12.2c-.05.06-.2.25-.23.42a4 4 0 0 1-.78-.24z"/><path id="Vector_340" fill="#102C53" d="M6.13 22.14q.22-.42.28-.87l.02-.18.01-.39c0-.64-.11-1.35-.12-2.08.01 1.33.18 3.08-.54 4.1-.04.07-.11.27-.16.34 0 0-.07.09.04.14l.25-.64z"/><path id="Vector_341" fill="#102C53" d="M5.19 21.83a3 3 0 0 0 .2-.52l.01-.07-.07.17-.35.77-.12.25c-.05.08-.19.24-.24.28v-.01l-.61-.42c-.2-.18-.07-.34-.05-.37a7 7 0 0 0 1.26-1.74c.21-.64.29-2.17.29-2.23.16-1.33.63-1.68.74-1.74l.15.05c-.2.22-.68.87-.7 1.89l-.22 2.71v.02s0 .07-.06.3c.2-.49.23-.72.23-.72l.14-2.11c.03-1.23.76-2.12.76-2.12v-.03l-.3-.11s-.63.43-.83 2.04c0 0-.07 1.43-.22 1.62a4 4 0 0 1-.51 1.07l-.52.73s-.65.6-.26.78c0 0 .14.29.34.24l.4.28.53-1.04z"/><path id="Vector_342" fill="#102C53" d="m28.11 26.48-.07.06v.03z"/><path id="Vector_343" fill="#102C53" d="M27.98 27.08v-.11q-.03.05-.1.03-.05-.03-.05-.08a.3.3 0 0 0 0 .19q.07.37.76.58h.05q0-.07.03-.14l-.03-.01q-.6-.17-.65-.45z"/><path id="Vector_344" fill="#102C53" d="m27.91 26.91.16-.23.09-.11q.01-.03.04-.05l.03-.04q-.05-.05-.1 0l-.02.01-.07.09v-.02l-.11.14-.02.23z"/><path id="Vector_345" fill="#102C53" d="M28.69 27.64s0-.07-.03-.09l-.03.14q.05-.01.05-.05z"/><path id="Vector_346" fill="#102C53" d="m28.16 26.57-.09.11c-.09.11-.16.23-.16.23l.02-.22-.1.23.05.09q.06.01.1-.03c.03-.2.24-.37.24-.37a.07.07 0 0 0 .01-.11l-.04.03z"/><path id="Vector_347" fill="#102C53" d="m28.2 26.51.04-.04z"/><path id="Vector_348" fill="#102C53" d="M35.26 21.04c.24-1.32.01-2.5 0-2.55q-.01-.09-.11-.07-.08.02-.07.11c0 .01.23 1.2 0 2.48-.14.78-.03 2.43.07 3.88.07.99.12 1.83.08 2.14v.01l.07-.32.11-.4v-.04l-.09-1.41c-.09-1.37-.2-3.07-.07-3.83z"/><path id="Vector_349" fill="#102C53" d="M35.31 27.14s.09-.03.09-.08q.03-.22 0-.67-.1.39-.14.73l.03.02z"/><path id="Vector_350" fill="#102C53" d="m35.31 26.73-.07.32v.01s.02.05.04.06q.05-.34.14-.73v-.06z"/><path id="Vector_351" fill="#102C53" d="m33.06 14.26-.74.74s-.03.1 0 .14l.07.03q.04 0 .06-.03l.74-.74s.04-.09 0-.14q-.06-.04-.13 0"/><path id="Vector_352" fill="#102C53" d="m21.36 13.94-.02-.03z"/><path id="Vector_353" fill="#102C53" d="m17.89 24.09-.01.07z"/><path id="Vector_354" fill="#102C53" d="m21.39 14.01-.03-.06z"/><path id="Vector_355" fill="#102C53" d="m21.36 13.94.01.01z"/><path id="Vector_356" fill="#102C53" d="M21.08 16.95s-.09.08-.15.09l-.25.05.01.03.16-.02.16-.07.04-.06v-.01z"/><path id="Vector_357" fill="#102C53" d="m19.68 17.05-.03.05h.53s.16.03.34.03l.01-.02c-.38.03-.73-.03-.86-.06z"/><path id="Vector_358" fill="#102C53" d="m16.65 26.88-.49.5.03.07c.07-.06.28-.25.49-.47l-.01-.01q-.03-.03-.02-.09"/><path id="Vector_359" fill="#102C53" d="M28.31 15.17c.14 0 .43.11.6.38l.03-.07q0-.04-.03-.07l-.09-.11a1 1 0 0 0-.32-.12q-.34-.08-.67-.12.05.01.08.06v.02z"/><path id="Vector_360" fill="#102C53" d="m29.01 15.75-.01-.06h-.01z"/><path id="Vector_361" fill="#102C53" d="M20.71 17.12v.03l.16-.05z"/><path id="Vector_362" fill="#102C53" d="M20.19 17.12h-.53l-.04.05s.24.05.54.05q.17 0 .38-.03v-.06z"/><path id="Vector_363" fill="#102C53" d="m17.07 26.45-.35.37s.07 0 .09.02c.22-.23.43-.49.48-.67l.16-.35v-.25l-.39.89z"/><path id="Vector_364" fill="#102C53" d="m17.89 24.07-.02.09-.01.07v.05c-.09.33-.05.37-.26.94q.06.02.07.09c.16-.45.22-.78.26-1.05l.07-.35v-.03z"/><path id="Vector_365" fill="#102C53" d="M22 20.3c.25-.78.76-2.06 1.03-2.17q.08-.04.05-.12-.04-.08-.12-.05c-.28.11-.62.87-.87 1.49a4 4 0 0 0-.09.59z"/><path id="Vector_366" fill="#102C53" d="M21.43 16.42c-.11.18-.21.4-.35.53v.01l-.04.06q.3-.15.47-.49l-.03-.03z"/><path id="Vector_367" fill="#102C53" d="M28.63 15.37q.31.24.34.79 0-.07.08-.09l-.04-.32-.03-.06a.1.1 0 0 1-.08-.1v-.04c-.18-.26-.46-.38-.6-.38l-.39-.04.01.06c.17-.01.47 0 .7.18z"/><path id="Vector_368" fill="#102C53" d="M27.79 17.49s-.09.03-.11.07c0 0-.07.45-.18.82l.35-.73v-.05a.1.1 0 0 0-.08-.1z"/><path id="Vector_369" fill="#102C53" d="M33.5 28.18s.05 0 .06-.03q.06-.06 0-.13a81 81 0 0 1-2.11-2.28l-.03-.02-.07.18.97 1.07a.1.1 0 0 1 .08-.04q.08 0 .09.09v.15l.93.98q.02.03.07.03z"/><path id="Vector_370" fill="#102C53" d="M27.81 15.05h.01q.34.04.67.12a1 1 0 0 1 .32.12l-.07-.07a1.3 1.3 0 0 0-.98-.21l.05.03z"/><path id="Vector_371" fill="#102C53" d="M28.94 15.47v-.03l-.03-.04z"/><path id="Vector_372" fill="#102C53" d="m29.01 15.75.01.03q.04.13.04.29.05-.01.08.04 0-.25-.09-.45l-.05.03z"/><path id="Vector_373" fill="#102C53" d="M29.06 16.08q0-.16-.04-.29l-.01-.03z"/><path id="Vector_374" fill="#102C53" d="m27.68 18.44-.08.2.02-.03.06-.18z"/><path id="Vector_375" fill="#102C53" d="M28.44 18.23a1 1 0 0 0-.3-.04h-.1l-.1.06v.05q0 .08.09.09l.37-.02.01-.08q0-.03.03-.05z"/><path id="Vector_376" fill="#102C53" d="m27.94 18.25.1-.05h-.02s-.07.03-.08.05"/><path id="Vector_377" fill="#102C53" d="M30.37 18.09s.06-.09.03-.13q-.06-.07-.13-.03c-.22.14-.56.18-.56.18l-1.3.06.05.05.03-.01h.01s.08.05.07.1v.05l1.14-.06s.39-.05.64-.2z"/><path id="Vector_378" fill="#102C53" d="M29.31 20.19q0-.09-.09-.1s-.09.04-.09.09c0 .02-.03.6.07 1.44l.01.02.14-.32c-.06-.67-.03-1.12-.03-1.12z"/><path id="Vector_379" fill="#102C53" d="M28.44 18.23h.03l-.05-.05h-.27z"/><path id="Vector_380" fill="#102C53" d="M20.54 17.11q.02-.04.07-.05l.07.03.25-.05.15-.09.34-.54-.03-.07c-.28.84-1.41.7-1.68.66q0 .03-.03.05c.13.03.48.09.86.06"/><path id="Vector_381" fill="#102C53" d="M21.41 14.07v-.05l-.03-.07-.05-.07-.04-.07-.06.03q-.09 0-.11-.07l-.05-.13-.16-.08-.05-.03.03-.05-.16-.11a.2.2 0 0 0-.06.19q-.01.08.16.18c.17.07.43.25.55.33a1 1 0 0 1-.24.2q-.06.04-.04.12.03.05.08.05l.05-.01.19-.12-.02-.17.02-.06z"/><path id="Vector_382" fill="#102C53" d="m21.36 13.93-.02-.02-.03-.04z"/><path id="Vector_383" fill="#102C53" d="m21.42 16.41-.34.54c.14-.13.24-.35.35-.53v-.01z"/><path id="Vector_384" fill="#102C53" d="m21.4 14.02-.04-.08z"/><path id="Vector_385" fill="#102C53" d="m21.31 13.86.03.05.02.03.04.08v.03q.02-.03.06-.03a.1.1 0 0 1 .09.06l.02-.05q0-.07-.03-.1l-.26-.18-.01.03z"/><path id="Vector_386" fill="#102C53" d="m21.27 13.8.04.07z"/><path id="Vector_387" fill="#102C53" d="m21.31 13.86-.04-.07z"/><path id="Vector_388" fill="#102C53" d="m21.34 13.91-.03-.05z"/><path id="Vector_389" fill="#102C53" d="m17.4 25.47.07-.04v-.14q.02-.09.11-.07.15-.45.27-.98l.01-.07.01-.07q-.07.13-.17.24c-.05.27-.11.6-.28 1.03l-.04.11z"/><path id="Vector_390" fill="#102C53" d="M16.7 26.7q-.31.34-.57.55l.04.12.49-.5v-.03l.03-.15z"/><path id="Vector_391" fill="#102C53" d="M17.86 24.23q-.12.53-.27.99c.22-.57.18-.61.26-.94z"/><path id="Vector_392" fill="#102C53" d="M17.46 25.57v-.14l-.07.04-.27.63a2 2 0 0 1-.43.6l-.03.15.01-.01.03-.02.35-.37c.05-.08.26-.58.39-.89z"/><path id="Vector_393" fill="#102C53" d="M17.72 22.08q.12.14.18.28l-.09-.36z"/><path id="Vector_394" fill="#102C53" d="M12.2 20.93h.03l.05-.04z"/><path id="Vector_395" fill="#102C53" d="M16.23 20.92s-.1 0-.12.05q-.03.08.05.12c.01 0 1.03.41 1.51.94l.03-.23a6 6 0 0 0-1.48-.89z"/><path id="Vector_396" fill="#102C53" d="M15.76 21.95s.09-.04.09-.09q-.02-.08-.09-.09l-.69.01a1.8 1.8 0 0 0-1.33.49q.04-.02.08 0l.14.05c.16-.13.52-.34 1.11-.34l.68-.02z"/><path id="Vector_397" fill="#102C53" d="m17.78 21.9-.01-.03v-.01l-.05-.05-.03.23.04.04.09-.07z"/><path id="Vector_398" fill="#102C53" d="M11.81 18.92a6 6 0 0 1-.13-1.42l-.18-.27v.02c0 .03-.08.72.13 1.71.16.79.39 1.54.47 1.8l.17-.07c-.08-.28-.29-1-.45-1.77z"/><path id="Vector_399" fill="#102C53" d="m21.45 14.18.02.06z"/><path id="Vector_400" fill="#102C53" d="m17.91 24.02-.01.05v-.05z"/><path id="Vector_401" fill="#102C53" d="m20.54 17.11-.01.02h.18l-.01-.03z"/><path id="Vector_402" fill="#102C53" d="m21.44 14.15-.03-.09z"/><path id="Vector_403" fill="#102C53" d="M29 15.58v-.03l-.01.05v-.01z"/><path id="Vector_404" fill="#102C53" d="m19.68 17.05-.05-.01v-.02l-.07.07h.09q.02-.01.03-.05z"/><path id="Vector_405" fill="#102C53" d="m28.98 15.69-.02-.09-.04-.13-.03.07.07.14z"/><path id="Vector_406" fill="#102C53" d="M18.03 22.45v-.05H18l.01.05z"/><path id="Vector_407" fill="#102C53" d="m20.83 13.3.12.06z"/><path id="Vector_408" fill="#102C53" d="m21.51 16.35.05.03v-.01l-.06-.03z"/><path id="Vector_409" fill="#102C53" d="m27.69 15.1.22.03v-.02l-.08-.06h-.08q-.04.01-.04.07z"/><path id="Vector_410" fill="#102C53" d="M16.67 26.86v.11l.01.01.05-.05z"/><path id="Vector_411" fill="#102C53" d="m16.15 27.4-.08-.09v.01l.05.17.06-.02.03-.02-.03-.07-.02.02z"/><path id="Vector_412" fill="#102C53" d="m17.95 22.18.01.05z"/><path id="Vector_413" fill="#102C53" d="m20.83 13.3-.04-.02z"/><path id="Vector_414" fill="#102C53" d="M19.56 17.1q0 .05.06.06l.04-.06z"/><path id="Vector_415" fill="#102C53" d="M20.53 17.13v.06q.09 0 .18-.04v-.03z"/><path id="Vector_416" fill="#102C53" d="M22.01 20.03q0-.12.09-.59c-.14.36-.24.68-.28.8q-.03.08.05.12h.03s.07-.02.09-.06v-.28z"/><path id="Vector_417" fill="#102C53" d="m17.93 23.92-.03.1v.05l.1-.19q0-.04-.04-.06z"/><path id="Vector_418" fill="#102C53" d="M16.81 26.84s-.06-.03-.09-.02l-.04.04.07.07.08-.08z"/><path id="Vector_419" fill="#102C53" d="m17.59 25.22-.06.17h.03l-.03.02-.06.16v.25l.16-.39.04-.11q0-.08-.07-.1z"/><path id="Vector_420" fill="#102C53" d="m21.51 16.35-.03-.02-.02.03-.04.06.05.07.03.03.05-.14z"/><path id="Vector_421" fill="#102C53" d="m18.07 22.37-.05.03v.05s.06-.03.07-.07v-.02z"/><path id="Vector_422" fill="#102C53" d="m27.92 15.13-.22-.03v.02q.01.09.11.07h.13z"/><path id="Vector_423" fill="#102C53" d="m27.73 18.25.03-.1v-.02l.02-.06.09-.42-.03.03c-.13.24-.25.52-.32.7l-.01.03-.05.14q-.02.06.03.1v-.01s-.05-.11.24-.39"/><path id="Vector_424" fill="#102C53" d="M28.9 15.59s.03.09.08.1l-.07-.14z"/><path id="Vector_425" fill="#102C53" d="M28.97 16.16q0 .1.09.1v-.18q-.08.02-.08.09z"/><path id="Vector_426" fill="#102C53" d="m31.32 25.73-.02.02v.02s0 .07.02.09l.03.04.07-.18q-.05-.03-.1.01"/><path id="Vector_427" fill="#102C53" d="M32.4 26.93s-.06.01-.08.04l.18.2v-.15q-.02-.08-.09-.09z"/><path id="Vector_428" fill="#102C53" d="M29.28 21.7q.09-.01.08-.1l-.01-.12-.09.22z"/><path id="Vector_429" fill="#102C53" d="m27.76 15.02-.03.01h.07l-.05-.02z"/><path id="Vector_430" fill="#102C53" d="m28.98 15.6.01-.05-.06-.1v.03z"/><path id="Vector_431" fill="#102C53" d="m29.07 16.17.05.07q.03-.02.03-.07v-.05a.1.1 0 0 0-.08-.04z"/><path id="Vector_432" fill="#102C53" d="m28.99 15.6.02.09q.03 0 .05-.03-.01-.06-.05-.11v.04z"/><path id="Vector_433" fill="#102C53" d="m28.49 18.27-.05-.04-.03.05-.01.08h.09z"/><path id="Vector_434" fill="#102C53" d="m27.49 18.64.01.01h.03l.07-.03.08-.2-.19.2z"/><path id="Vector_435" fill="#102C53" d="m27.49 18.64.19-.2.05-.19c-.29.28-.24.39-.24.39"/><path id="Vector_436" fill="#102C53" d="M29.2 21.64s.03.05.06.05l.09-.22-.01-.16z"/><path id="Vector_437" fill="#102C53" d="M29.07 16.27q.02 0 .05-.03l-.05-.07z"/><path id="Vector_438" fill="#102C53" d="m28.52 18.21-.03.01.02.05v.09h.09v-.05q0-.08-.07-.1"/><path id="Vector_439" fill="#102C53" d="M27.74 18.13v.02q.02-.02.03-.08z"/><path id="Vector_440" fill="#102C53" d="m28.49 18.27-.02-.05h-.03z"/><path id="Vector_441" fill="#102C53" d="m21.45 14.18-.04-.11-.02.06.02.17.06-.05z"/><path id="Vector_442" fill="#102C53" d="m20.95 13.36-.12-.06.02.01q.05.01.09.05z"/><path id="Vector_443" fill="#102C53" d="m21.21 13.83.06-.03-.05-.07-.17-.09q.05.1.05.13.02.08.11.07z"/><path id="Vector_444" fill="#102C53" d="M20.92 13.42q.02 0 .03-.06l-.09-.05-.02-.01-.04-.02-.07.07.16.11.04-.05z"/><path id="Vector_445" fill="#102C53" d="M20.62 17.06s-.06.02-.07.05l.15-.02z"/><path id="Vector_446" fill="#102C53" d="m19.68 17.05.03-.05h-.05l-.03.04v.02l.05.01z"/><path id="Vector_447" fill="#102C53" d="M21.47 16.33q-.02 0-.03-.02l-.03-.02v.01l-.01.03.03.07z"/><path id="Vector_448" fill="#102C53" d="m21.44 14.15-.03-.09.04.11z"/><path id="Vector_449" fill="#102C53" d="m21.47 16.33-.05.07v.01l.04-.06z"/><path id="Vector_450" fill="#102C53" d="m17.98 22.22-.03-.15-.03-.05.03.15.02.05z"/><path id="Vector_451" fill="#102C53" d="m18.02 22.18-.07-.11.03.14z"/><path id="Vector_452" fill="#102C53" d="m21.51 16.25-.02.07.01.03.06.03v-.01l-.01-.08-.05-.03z"/><path id="Vector_453" fill="#102C53" d="m20.83 13.3.12.06q0-.04-.02-.07a.1.1 0 0 0-.13-.01z"/><path id="Vector_454" fill="#102C53" d="m19.56 17.1.08-.07V17s-.08.02-.09.07z"/><path id="Vector_455" fill="#102C53" d="m20.81 13.28.04.02-.02-.01z"/><path id="Vector_456" fill="#102C53" d="m21.47 14.23-.02-.05z"/><path id="Vector_457" fill="#102C53" d="m21.27 13.8.01-.03-.06-.04z"/><path id="Vector_458" fill="#102C53" d="M21.45 14.17v.02l.02.05.09-.14q0-.04-.09-.06-.04 0-.06.03l.03.09z"/><path id="Vector_459" fill="#102C53" d="M21.5 16.33h-.01l.03.01z"/><path id="Vector_460" fill="#102C53" d="M19.66 16.99h-.02v.03z"/><path id="Vector_461" fill="#102C53" d="m21.49 16.32.02-.07q-.06-.02-.1.05l.03.02.03.02z"/><path id="Vector_462" fill="#102C53" d="m21.27 13.8-.05-.07z"/><path id="Vector_463" fill="#102C53" d="m21.49 16.31-.02.02h.01z"/><path id="Vector_464" fill="#102C53" d="M17.47 25.29s-.01.08 0 .14l.05-.02v-.02l.06-.17s-.1.01-.11.07"/><path id="Vector_465" fill="#102C53" d="m17.89 24.08.01-.07.03-.1.02-.11h-.01l-.05.1q-.05.12-.14.23l-.02.09-.02.1q.1-.1.17-.24z"/><path id="Vector_466" fill="#102C53" d="m16.07 27.31.08.09.02-.02-.04-.12z"/><path id="Vector_467" fill="#102C53" d="m16.67 26.84-.01.01.04-.03z"/><path id="Vector_468" fill="#102C53" d="m17.46 25.57.06-.16-.05.02z"/><path id="Vector_469" fill="#102C53" d="m17.95 23.81-.02.11.03-.1z"/><path id="Vector_470" fill="#102C53" d="m17.81 23.86-.05.27.14-.23.05-.1h-.01q-.09-.02-.11.07z"/><path id="Vector_471" fill="#102C53" d="M12.12 20.86s.04.05.07.05l.09-.03.01-.08v-.02z"/><path id="Vector_472" fill="#102C53" d="m13.74 22.27-.02.02q-.04.05 0 .11l.03-.01.02-.02.02-.01.09.03.07-.06-.14-.05h-.08z"/><path id="Vector_473" fill="#102C53" d="M18 22.39q-.02 0-.05-.03a.1.1 0 0 1 .01-.14l-.01-.05-.07-.19q0-.02-.02-.03l-.05.04.09.36v.04q.02.05.09.06H18z"/><path id="Vector_474" fill="#102C53" d="m17.78 21.9.03.1.05-.04s-.05-.07-.09-.09z"/><path id="Vector_475" fill="#102C53" d="m17.88 21.99.07.18-.03-.15z"/><path id="Vector_476" fill="#102C53" d="m13.77 22.36-.02.02-.03.02.01.01.06.02.07-.03.02-.02-.09-.03z"/><path id="Vector_477" fill="#102C53" d="m13.72 22.39.03-.01z"/><path id="Vector_478" fill="#102C53" d="m13.79 22.35.09.03z"/><path id="Vector_479" fill="#102C53" d="M11.68 17.34v-.07a.1.1 0 0 0-.08-.1h-.02l.05.09z"/><path id="Vector_480" fill="#102C53" d="m12.09 20.76.02.09.18-.07-.03-.09z"/><path id="Vector_481" fill="#102C53" d="M11.58 17.18s-.06.02-.07.05l.18.27v-.16l-.05-.08z"/><path id="Vector_482" fill="#102C53" d="m11.63 17.26-.05-.09z"/><path id="Vector_483" fill="#102C53" d="m16.03 27.47.07.03-.05-.17h-.01q-.07.05-.01.14"/><path id="Vector_484" fill="#102C53" d="m18.07 22.32.01.02v.02l.12-.1-.15.05v.01z"/><path id="Vector_485" fill="#102C53" d="m18.17 22.07-.03.01-.09.08.03.14.15-.04.04-.03z"/><path id="Vector_486" fill="#102C53" d="m18.07 22.3-.03-.14-.02.02.05.11z"/><path id="Vector_487" fill="#102C53" d="M18.27 22.09s-.07-.03-.1-.02l.09.16q.07-.06.01-.14"/><path id="Vector_488" fill="#102C53" d="m18.09 22.34-.01-.02.01.04z"/><path id="Vector_489" fill="#102C53" d="m18 22.33-.03-.1.04.17h.03l-.02-.07z"/><path id="Vector_490" fill="#102C53" d="m18.03 22.4.05-.03h.01l-.01-.05v-.01l-.06.02z"/><path id="Vector_491" fill="#102C53" d="M18 22.33h.01l-.03-.11h-.01z"/><path id="Vector_492" fill="#102C53" d="m17.98 22.21.03.11.06-.02-.05-.12z"/><path id="Vector_493" fill="#102C53" d="m17.95 22.37.05.03-.04-.16q-.06.06-.01.14z"/><g id="_Ripetizione_radiale_"><path id="Vector_494" fill="#102C53" d="M20.6 42.15h.94v-2.42h-.94z"/></g><g id="_Ripetizione_radiale_-2"><path id="Vector_495" fill="#102C53" d="m17.3 41.81.93.15.38-2.4-.93-.14z"/></g><g id="_Ripetizione_radiale_-3"><path id="Vector_496" fill="#102C53" d="m14.11 40.97.9.29.74-2.3-.89-.3z"/></g><g id="_Ripetizione_radiale_-4"><path id="Vector_497" fill="#102C53" d="m11.08 39.63.84.42 1.1-2.15-.84-.43z"/></g><g id="_Ripetizione_radiale_-5"><path id="Vector_498" fill="#102C53" d="m8.31 37.84.76.55 1.42-1.95-.76-.56z"/></g><g id="_Ripetizione_radiale_-6"><path id="Vector_499" fill="#102C53" d="m5.83 35.64.67.66 1.71-1.7-.66-.67z"/></g><g id="_Ripetizione_radiale_-7"><path id="Vector_500" fill="#102C53" d="m3.75 33.09.55.76 1.96-1.43-.55-.76z"/></g><g id="_Ripetizione_radiale_-8"><path id="Vector_501" fill="#102C53" d="m2.07 30.22.43.84 2.16-1.1-.43-.84z"/></g><g id="_Ripetizione_radiale_-9"><path id="Vector_502" fill="#102C53" d="m.88 27.15.29.89 2.3-.75-.29-.9z"/></g><g id="_Ripetizione_radiale_-10"><path id="Vector_503" fill="#102C53" d="m.19 23.91.14.93 2.4-.38-.15-.93z"/></g><g id="_Ripetizione_radiale_-11"><path id="Vector_504" fill="#102C53" d="M0 20.6v.94h2.42v-.94z"/></g><g id="_Ripetizione_radiale_-12"><path id="Vector_505" fill="#102C53" d="m.33 17.32-.14.92 2.39.38.14-.93z"/></g><g id="_Ripetizione_radiale_-13"><path id="Vector_506" fill="#102C53" d="m1.18 14.11-.3.9 2.3.74.3-.89z"/></g><g id="_Ripetizione_radiale_-14"><path id="Vector_507" fill="#102C53" d="m2.52 11.09-.43.83 2.15 1.1.43-.84z"/></g><g id="_Ripetizione_radiale_-15"><path id="Vector_508" fill="#102C53" d="m4.3 8.3-.55.77 1.96 1.42.55-.76z"/></g><g id="_Ripetizione_radiale_-16"><path id="Vector_509" fill="#102C53" d="m6.5 5.84-.66.67 1.72 1.7.66-.66z"/></g><g id="_Ripetizione_radiale_-17"><path id="Vector_510" fill="#102C53" d="m9.06 3.74-.76.56 1.42 1.96.77-.56z"/></g><g id="_Ripetizione_radiale_-18"><path id="Vector_511" fill="#102C53" d="m11.93 2.08-.84.43 1.1 2.16.84-.43z"/></g><g id="_Ripetizione_radiale_-19"><path id="Vector_512" fill="#102C53" d="m15.02.88-.9.3.75 2.3.9-.3z"/></g><g id="_Ripetizione_radiale_-20"><path id="Vector_513" fill="#102C53" d="m18.25.18-.93.15.38 2.39.93-.15z"/></g><g id="_Ripetizione_radiale_-21"><path id="Vector_514" fill="#102C53" d="M21.55 0h-.94v2.42h.94z"/></g><g id="_Ripetizione_radiale_-22"><path id="Vector_515" fill="#102C53" d="M24.83.33 23.9.2l-.38 2.39.93.14z"/></g><g id="_Ripetizione_radiale_-23"><path id="Vector_516" fill="#102C53" d="m28.04 1.18-.9-.3-.75 2.3.9.3z"/></g><g id="_Ripetizione_radiale_-24"><path id="Vector_517" fill="#102C53" d="m31.05 2.52-.83-.43-1.1 2.16.84.42z"/></g><g id="_Ripetizione_radiale_-25"><path id="Vector_518" fill="#102C53" d="m33.84 4.3-.76-.55-1.42 1.96.76.55z"/></g><g id="_Ripetizione_radiale_-26"><path id="Vector_519" fill="#102C53" d="m36.3 6.5-.66-.66-1.72 1.7.67.67z"/></g><g id="_Ripetizione_radiale_-27"><path id="Vector_520" fill="#102C53" d="m38.4 9.07-.56-.76-1.95 1.42.55.76z"/></g><g id="_Ripetizione_radiale_-28"><path id="Vector_521" fill="#102C53" d="m40.06 11.93-.43-.84-2.15 1.1.43.84z"/></g><g id="_Ripetizione_radiale_-29"><path id="Vector_522" fill="#102C53" d="m41.26 15.01-.3-.89-2.3.75.3.9z"/></g><g id="_Ripetizione_radiale_-30"><path id="Vector_523" fill="#102C53" d="m41.96 18.25-.15-.93-2.4.38.16.92z"/></g><g id="_Ripetizione_radiale_-31"><path id="Vector_524" fill="#102C53" d="M42.14 21.54v-.94h-2.42v.94z"/></g><g id="_Ripetizione_radiale_-32"><path id="Vector_525" fill="#102C53" d="m41.82 24.84.15-.93-2.4-.38-.14.93z"/></g><g id="_Ripetizione_radiale_-33"><path id="Vector_526" fill="#102C53" d="m40.98 28.04.29-.9-2.3-.75-.3.9z"/></g><g id="_Ripetizione_radiale_-34"><path id="Vector_527" fill="#102C53" d="m39.64 31.07.43-.84-2.16-1.1-.43.84z"/></g><g id="_Ripetizione_radiale_-35"><path id="Vector_528" fill="#102C53" d="m37.84 33.85.55-.76-1.95-1.43-.56.76z"/></g><g id="_Ripetizione_radiale_-36"><path id="Vector_529" fill="#102C53" d="m35.65 36.3.66-.66-1.71-1.7-.67.66z"/></g><g id="_Ripetizione_radiale_-37"><path id="Vector_530" fill="#102C53" d="m33.08 38.4.76-.55-1.42-1.96-.76.55z"/></g><g id="_Ripetizione_radiale_-38"><path id="Vector_531" fill="#102C53" d="m30.22 40.06.84-.43-1.1-2.15-.83.42z"/></g><g id="_Ripetizione_radiale_-39"><path id="Vector_532" fill="#102C53" d="m27.14 41.26.9-.29-.76-2.3-.9.29z"/></g><g id="_Ripetizione_radiale_-40"><path id="Vector_533" fill="#102C53" d="m23.9 41.96.93-.14-.37-2.4-.93.15z"/></g></g></svg>